<?xml version="1.0" encoding="utf-8"?>
<!-- Generator: Adobe Illustrator 24.1.2, SVG Export Plug-In . SVG Version: 6.00 Build 0)  -->
<svg version="1.1" id="Layer_1" xmlns="http://www.w3.org/2000/svg" xmlns:xlink="http://www.w3.org/1999/xlink" x="0px" y="0px"
	 viewBox="0 0 324.8 243.6" style="enable-background:new 0 0 324.8 243.6;" xml:space="preserve">
<style type="text/css">
	.st0{fill:none;}
	.st1{fill:none;stroke:#000000;}
	.st2{fill:url(#SVGID_2_);stroke:#000000;}
	.st3{stroke:#000000;stroke-width:0.136;stroke-miterlimit:10;}
	.st4{stroke:#000000;stroke-width:9.520000e-02;stroke-miterlimit:10;}
</style>
<pattern  x="-29.1" y="302" width="11.3" height="11.3" patternUnits="userSpaceOnUse" id="SVGID_1_" viewBox="0.5 -11.3 11.3 11.3" style="overflow:visible;">
	<g>
		<rect x="0.5" y="-11.3" class="st0" width="11.3" height="11.3"/>
		<g>
			<rect x="0.5" y="-11.3" class="st0" width="11.3" height="11.3"/>
			<path class="st1" d="M0.5-11.3V0"/>
			<path class="st1" d="M6.2-11.3V0"/>
			<path class="st1" d="M11.8-11.3V0"/>
		</g>
	</g>
</pattern>
<g>
	<g>
		<path class="st1" d="M42,145.3c55.3-64,91.3,28.7,131.3-1.3"/>
	</g>
	<g>
		<path class="st1" d="M173.4,144c39.6-29.7,67.4-83.6,20.8-99.5"/>
		<g transform="matrix(0.9537694192848327,0.30053933991588005,-0.30053933991588005,0.9537694192848327,221.79998779296875,44)">
			<path class="st1" d="M-16.8,3.8c-3.9,2.6-7.6,4.2-10.9,4.9c3.3,0.7,7,2.3,10.9,4.9"/>
		</g>
	</g>
	<g>
		<path class="st1" d="M173.4,144c-35.3-36.7-19.3-113.3,19.3-100"/>
	</g>
	<g>
		<pattern  id="SVGID_2_" xlink:href="#SVGID_1_" patternTransform="matrix(0.7071 -0.7071 0.7071 0.7071 -4596.3789 11417.8965)">
		</pattern>
		<path class="st2" d="M184.7,61.9c8.6,0.5,14.7,12.9,13.8,27.5s-8.6,26.1-17.2,25.5c-8.6-0.5-14.7-12.9-13.8-27.5
			C168.5,72.8,176.1,61.3,184.7,61.9z"/>
	</g>
	<g>
		<path class="st1" d="M173.4,144c66-16,60,30,100,0"/>
	</g>
	<g>
		<path class="st1" d="M42,145.3c40-30,76,94,131.3-1.3"/>
	</g>
	<g>
		<path class="st1" d="M173.4,144c59.3,95.3,123.3,28,100,0"/>
	</g>
</g>
<g>
	<g>
		<g>
			<g transform="matrix(1,0,0,1,155.64996337890625,74.00000762939453)">
				<path class="st3" d="M-25.8-6l-1.7,8.4c-0.2,0.9-0.5,1.5-0.8,1.5c-0.2,0-0.5-0.1-0.9-0.3l-0.1,1c0.2,0.1,0.4,0.1,0.6,0.1
					c0.7,0,1.4-0.7,2-2.1c0.3-0.8,0.6-1.6,1-3.8l1.3-6c0.1-0.3,0.1-0.5,0.1-0.6c0-0.3-0.2-0.4-0.4-0.4c-0.4,0-1,0.4-2.3,1.3
					l-0.5,0.3l0.1,0.3l0.5-0.4C-26.2-7-26.1-7-26-7c0.2,0,0.3,0.2,0.3,0.4C-25.7-6.5-25.8-6.1-25.8-6z M-24.3-12.1
					c-0.5,0-1,0.6-1,1.1c0,0.4,0.3,0.7,0.7,0.7c0.5,0,0.9-0.5,0.9-1.1C-23.6-11.8-23.9-12.1-24.3-12.1z"/>
			</g>
		</g>
	</g>
</g>
<g>
	<g>
		<g>
			<g transform="matrix(1,0,0,1,131.64996337890625,115.65625762939453)">
				<path class="st3" d="M-23.2-7.4h-0.3l0.4-1.9c0.3-1.5,0.7-2.1,1.5-2.1c0.5,0,1,0.3,1.2,0.7l0.2-0.1c0.1-0.3,0.2-0.8,0.4-1.2
					l0.1-0.3c-0.3-0.1-0.8-0.2-1.2-0.2c-0.2,0-0.5,0.1-0.6,0.1c-0.4,0.2-1.8,1.2-2.2,1.6c-0.4,0.5-0.6,1-0.8,1.9l-0.2,1.4
					c-0.7,0.3-1.1,0.5-1.5,0.6l-0.1,0.4h1.4l-0.2,0.9c-0.5,3.4-1.1,6.5-1.5,7.7c-0.3,1-0.8,1.5-1.4,1.5c-0.4,0-0.6-0.1-0.9-0.5
					l-0.2,0.1c-0.1,0.4-0.3,1.2-0.4,1.4c0.1,0,0.4,0.1,0.6,0.1c0.7,0,1.6-0.5,2.3-1.3c1.2-1.4,1.5-3.1,3-9.9h1.8
					c0.1-0.3,0.2-0.7,0.3-1l-0.2-0.1C-22.2-7.5-22.2-7.4-23.2-7.4z"/>
			</g>
		</g>
		<g>
			<g>
				<g>
					<g>
						<g transform="matrix(1,0,0,1,141.5,118.66874542236329)">
							<path class="st4" d="M-26-8.2c-1.8,0-2.8,1.5-2.8,4.3c0,1.4,0.2,2.6,0.7,3.2s1.1,0.9,1.8,0.9c1.8,0,2.7-1.5,2.7-4.6
								C-23.6-7-24.3-8.2-26-8.2z M-26.2-7.8c1.2,0,1.6,1.2,1.6,4c0,2.5-0.5,3.6-1.5,3.6c-1.2,0-1.6-1.2-1.6-4.1
								C-27.8-6.8-27.3-7.8-26.2-7.8z"/>
						</g>
					</g>
				</g>
			</g>
		</g>
	</g>
</g>
<g>
	<g>
		<g>
			<g transform="matrix(1,0,0,1,268.99371337890625,131.3187484741211)">
				<path class="st3" d="M-24.4-8.2c-1.1,0-3.7,1.1-3.7,3.8c0,1.3,0.8,2.1,2.1,2.1c0.1,0,0.3,0,0.5,0l-0.8,0.6
					c-0.2,0.3-0.4,0.6-0.4,0.8s0.1,0.4,0.4,0.6c-1.2,0.4-3.3,1.1-3.3,3c0,1.2,1.2,2,3,2c2.2,0,4.1-1.2,4.1-2.6
					c0-0.6-0.4-1.2-1.1-1.8l-1-0.8c-0.7-0.6-0.9-0.9-0.9-1.2c0-0.2,0.3-0.5,0.5-0.8c1.6-0.4,2.9-1.8,2.9-3.3c0-0.3-0.1-0.6-0.1-0.6
					c0.3,0,0.4,0,0.6,0c0.3,0,0.5,0,0.8-0.1l0.2-0.8l-0.1-0.1c-0.5,0.2-0.8,0.2-1.7,0.2C-22.4-7.2-22.8-8.2-24.4-8.2z M-26.1,0
					l1.3,1c0.8,0.6,1.1,1.1,1.1,1.6c0,0.9-1.2,1.6-2.6,1.6s-2.4-0.7-2.4-1.8C-28.6,0.7-26.8,0.2-26.1,0z M-24.8-7.6
					c1,0,1.5,0.6,1.5,1.8c0,1.8-0.8,2.9-2,2.9c-1,0-1.6-0.7-1.6-2C-27-6.5-26.1-7.6-24.8-7.6z"/>
			</g>
		</g>
		<g>
			<g>
				<g>
					<g>
						<g transform="matrix(1,0,0,1,277.98126220703125,134.3312515258789)">
							<path class="st4" d="M-26-8.2c-1.8,0-2.8,1.5-2.8,4.3c0,1.4,0.2,2.6,0.7,3.2s1.1,0.9,1.8,0.9c1.8,0,2.7-1.5,2.7-4.6
								C-23.6-7-24.3-8.2-26-8.2z M-26.2-7.8c1.2,0,1.6,1.2,1.6,4c0,2.5-0.5,3.6-1.5,3.6c-1.2,0-1.6-1.2-1.6-4.1
								C-27.8-6.8-27.3-7.8-26.2-7.8z"/>
						</g>
					</g>
				</g>
			</g>
		</g>
	</g>
</g>
<g>
	<g>
		<g>
			<g transform="matrix(1,0,0,1,145,204.99376678466797)">
				<path class="st3" d="M-23.2-7.4h-0.3l0.4-1.9c0.3-1.5,0.7-2.1,1.5-2.1c0.5,0,1,0.3,1.2,0.7l0.2-0.1c0.1-0.3,0.2-0.8,0.4-1.2
					l0.1-0.3c-0.3-0.1-0.8-0.2-1.2-0.2c-0.2,0-0.5,0.1-0.6,0.1c-0.4,0.2-1.8,1.2-2.2,1.6c-0.4,0.5-0.6,1-0.8,1.9l-0.2,1.4
					c-0.7,0.3-1.1,0.5-1.5,0.6l-0.1,0.4h1.4l-0.2,0.9c-0.5,3.4-1.1,6.5-1.5,7.7c-0.3,1-0.8,1.5-1.4,1.5c-0.4,0-0.6-0.1-0.9-0.5
					l-0.2,0.1c-0.1,0.4-0.3,1.2-0.4,1.4c0.1,0,0.4,0.1,0.6,0.1c0.7,0,1.6-0.5,2.3-1.3c1.2-1.4,1.5-3.1,3-9.9h1.8
					c0.1-0.3,0.2-0.7,0.3-1l-0.2-0.1C-22.2-7.5-22.2-7.4-23.2-7.4z"/>
			</g>
		</g>
		<g>
			<g>
				<g>
					<g>
						<g transform="matrix(1,0,0,1,154.8499755859375,208.00625457763672)">
							<path class="st4" d="M-24.1,0v-0.4h-0.6c-0.7,0-0.8-0.2-0.8-0.8v-7.2l-2.9,1.3l0.1,0.6l1.8-0.8v6.2c0,0.6-0.1,0.7-0.8,0.8
								H-28V0c1.9,0,1.9,0,2,0C-25.6,0-24.3,0-24.1,0z"/>
						</g>
					</g>
				</g>
			</g>
		</g>
	</g>
</g>
<g>
	<g>
		<g>
			<g transform="matrix(1,0,0,1,294.3187255859375,199.99376678466797)">
				<path class="st3" d="M-24.4-8.2c-1.1,0-3.7,1.1-3.7,3.8c0,1.3,0.8,2.1,2.1,2.1c0.1,0,0.3,0,0.5,0l-0.8,0.6
					c-0.3,0.3-0.4,0.6-0.4,0.8s0.1,0.4,0.4,0.6c-1.2,0.4-3.3,1.1-3.3,3c0,1.2,1.2,2,3,2c2.2,0,4.1-1.2,4.1-2.6
					c0-0.6-0.4-1.2-1.1-1.8l-1-0.8c-0.7-0.6-0.9-0.9-0.9-1.2c0-0.2,0.3-0.5,0.5-0.8c1.6-0.4,2.9-1.8,2.9-3.3c0-0.3-0.1-0.6-0.1-0.6
					c0.3,0,0.4,0,0.6,0c0.3,0,0.5,0,0.8-0.1l0.2-0.8l-0.1-0.1c-0.5,0.2-0.8,0.2-1.7,0.2C-22.4-7.2-22.8-8.2-24.4-8.2z M-26.1,0
					l1.3,1c0.8,0.6,1.1,1.1,1.1,1.6c0,0.9-1.2,1.6-2.6,1.6s-2.4-0.7-2.4-1.8C-28.6,0.7-26.8,0.2-26.1,0z M-24.8-7.6
					c1,0,1.5,0.6,1.5,1.8c0,1.8-0.8,2.9-2,2.9c-1,0-1.6-0.7-1.6-2C-27-6.5-26.1-7.6-24.8-7.6z"/>
			</g>
		</g>
		<g>
			<g>
				<g>
					<g>
						<g transform="matrix(1,0,0,1,303.30621337890625,203.00625457763672)">
							<path class="st4" d="M-24.1,0v-0.4h-0.6c-0.7,0-0.8-0.2-0.8-0.8v-7.2l-2.9,1.3l0.1,0.6l1.8-0.8v6.2c0,0.6-0.1,0.7-0.8,0.8
								H-28V0c1.9,0,1.9,0,2,0C-25.6,0-24.3,0-24.1,0z"/>
						</g>
					</g>
				</g>
			</g>
		</g>
	</g>
</g>
<g>
	<g>
		<g>
			<g transform="matrix(1,0,0,1,57.65625,156.99376678466797)">
				<path class="st3" d="M-28.9,0c0.3,0.1,0.5,0.2,0.7,0.2c0.6,0,1.2-0.5,1.8-1.3l1.3-2l0.2,1.2c0.2,1.4,0.6,2.1,1.2,2.1
					c0.4,0,0.9-0.3,1.5-0.8l0.8-0.7l-0.2-0.4c-0.6,0.5-1,0.8-1.3,0.8c-0.3,0-0.5-0.2-0.6-0.5c-0.2-0.3-0.3-1-0.4-1.4l-0.4-1.8
					l0.6-0.8c0.8-1.1,1.3-1.5,1.8-1.5c0.3,0,0.5,0.1,0.6,0.4l0.2-0.1l0.2-1.4c-0.2-0.1-0.3-0.2-0.5-0.2c-0.7,0-1.3,0.6-2.4,2.2
					l-0.6,0.9l-0.1-0.8c-0.2-1.7-0.7-2.3-1.7-2.3c-0.4,0-0.8,0.1-1,0.4l-0.9,1.4l0.3,0.2c0.5-0.6,0.9-0.8,1.2-0.8
					c0.6,0,0.9,0.7,1.2,2.4l0.2,1.1L-26-2.6c-0.7,1.1-1.3,1.7-1.7,1.7c-0.3,0-0.5-0.1-0.5-0.2l-0.2-0.4h-0.3
					C-28.7-0.9-28.9-0.5-28.9,0z"/>
			</g>
		</g>
		<g>
			<g>
				<g>
					<g>
						<g transform="matrix(1,0,0,1,66.64373779296875,160.00625457763672)">
							<path class="st4" d="M-26-8.2c-1.8,0-2.8,1.5-2.8,4.3c0,1.4,0.2,2.6,0.7,3.2s1.1,0.9,1.8,0.9c1.8,0,2.7-1.5,2.7-4.6
								C-23.6-7-24.3-8.2-26-8.2z M-26.2-7.8c1.2,0,1.6,1.2,1.6,4c0,2.5-0.5,3.6-1.5,3.6c-1.2,0-1.6-1.2-1.6-4.1
								C-27.8-6.8-27.3-7.8-26.2-7.8z"/>
						</g>
					</g>
				</g>
			</g>
		</g>
	</g>
</g>
<g>
	<g>
		<g>
			<g transform="matrix(1,0,0,1,198.3187255859375,166.65624237060547)">
				<path class="st3" d="M-28.9,0c0.3,0.1,0.5,0.2,0.7,0.2c0.6,0,1.2-0.5,1.8-1.3l1.3-2l0.2,1.2c0.2,1.4,0.6,2.1,1.2,2.1
					c0.4,0,0.9-0.3,1.5-0.8l0.8-0.7l-0.2-0.4c-0.6,0.5-1,0.8-1.3,0.8c-0.3,0-0.5-0.2-0.6-0.5c-0.2-0.3-0.3-1-0.4-1.4l-0.4-1.8
					l0.6-0.8c0.8-1.1,1.3-1.5,1.8-1.5c0.3,0,0.5,0.1,0.6,0.4l0.2-0.1l0.2-1.4c-0.2-0.1-0.3-0.2-0.5-0.2c-0.7,0-1.3,0.6-2.4,2.2
					l-0.6,0.9l-0.1-0.8c-0.2-1.7-0.7-2.3-1.7-2.3c-0.4,0-0.8,0.1-1,0.4l-0.9,1.4l0.3,0.2C-27.3-6.8-27-7-26.6-7
					c0.6,0,0.9,0.7,1.2,2.4l0.2,1.1L-26-2.6c-0.7,1.1-1.3,1.7-1.7,1.7c-0.3,0-0.5-0.1-0.5-0.2l-0.2-0.4h-0.3
					C-28.7-0.9-28.9-0.5-28.9,0z"/>
			</g>
		</g>
		<g>
			<g>
				<g>
					<g>
						<g transform="matrix(1,0,0,1,207.30621337890625,169.66876068115235)">
							<path class="st4" d="M-24.1,0v-0.4h-0.6c-0.7,0-0.8-0.2-0.8-0.8v-7.2l-2.9,1.3l0.1,0.6l1.8-0.8v6.2c0,0.6-0.1,0.7-0.8,0.8
								H-28V0c1.9,0,1.9,0,2,0C-25.6,0-24.3,0-24.1,0z"/>
						</g>
					</g>
				</g>
			</g>
		</g>
	</g>
</g>
<g>
	<g>
		<g>
			<g transform="matrix(1,0,0,1,307.65625,139.9937515258789)">
				<path class="st3" d="M-28.9,0c0.3,0.1,0.5,0.2,0.7,0.2c0.6,0,1.2-0.5,1.8-1.3l1.3-2l0.2,1.2c0.2,1.4,0.6,2.1,1.2,2.1
					c0.4,0,0.9-0.3,1.5-0.8l0.8-0.7l-0.2-0.4c-0.6,0.5-1,0.8-1.3,0.8c-0.3,0-0.5-0.2-0.6-0.5c-0.2-0.3-0.3-1-0.4-1.4l-0.4-1.8
					l0.6-0.8c0.8-1.1,1.3-1.5,1.8-1.5c0.3,0,0.5,0.1,0.6,0.4l0.2-0.1l0.2-1.4c-0.2-0.1-0.3-0.2-0.5-0.2c-0.7,0-1.3,0.6-2.4,2.2
					l-0.6,0.9l-0.1-0.8c-0.2-1.7-0.7-2.3-1.7-2.3c-0.4,0-0.8,0.1-1,0.4l-0.9,1.4l0.3,0.2c0.5-0.6,0.9-0.8,1.2-0.8
					c0.6,0,0.9,0.7,1.2,2.4l0.2,1.1L-26-2.6c-0.7,1.1-1.3,1.7-1.7,1.7c-0.3,0-0.5-0.1-0.5-0.2l-0.2-0.4h-0.3
					C-28.7-0.9-28.9-0.5-28.9,0z"/>
			</g>
		</g>
		<g>
			<g>
				<g>
					<g>
						<g transform="matrix(1,0,0,1,316.64373779296875,143.00625457763672)">
							<path class="st4" d="M-28.9-0.3V0c2.2,0,2.2,0,2.7,0s0.4,0,2.7,0v-1c-1.4,0.1-1.9,0-4.1,0.1l2.2-2.3C-24.3-4.4-24-5.1-24-6
								c0-1.4-0.9-2.2-2.4-2.2c-0.9,0-1.4,0.2-2,0.8l-0.2,1.7h0.3l0.2-0.6c0.2-0.7,0.6-1,1.4-1c1,0,1.7,0.6,1.7,1.7
								c0,0.9-0.5,1.8-1.8,3.2L-28.9-0.3z"/>
						</g>
					</g>
				</g>
			</g>
		</g>
	</g>
</g>
</svg>
