<svg version="1.1" xmlns="http://www.w3.org/2000/svg" xmlns:xlink="http://www.w3.org/1999/xlink" width="1156" height="670"><defs><clipPath id="lBEBvcreHQBI"><path fill="none" stroke="none" d=" M 0 0 L 1156 0 L 1156 670 L 0 670 L 0 0 Z"/></clipPath></defs><g transform="scale(1,1)" clip-path="url(#lBEBvcreHQBI)"><g><rect fill="rgb(255,255,255)" stroke="none" x="0" y="0" width="1156" height="670" fill-opacity="1"/><path fill="none" stroke="rgb(192,192,192)" paint-order="fill stroke markers" d=" M 1.5 0.5 L 1.5 670.5 M 1.5 0.5 L 1.5 670.5 M 74.5 0.5 L 74.5 670.5 M 147.5 0.5 L 147.5 670.5 M 220.5 0.5 L 220.5 670.5 M 293.5 0.5 L 293.5 670.5 M 366.5 0.5 L 366.5 670.5 M 439.5 0.5 L 439.5 670.5 M 513.5 0.5 L 513.5 670.5 M 659.5 0.5 L 659.5 670.5 M 732.5 0.5 L 732.5 670.5 M 805.5 0.5 L 805.5 670.5 M 878.5 0.5 L 878.5 670.5 M 951.5 0.5 L 951.5 670.5 M 1024.5 0.5 L 1024.5 670.5 M 1097.5 0.5 L 1097.5 670.5" stroke-opacity="1" stroke-linecap="round" stroke-linejoin="round" stroke-miterlimit="10"/><path fill="none" stroke="rgb(192,192,192)" paint-order="fill stroke markers" d=" M 16.5 0.5 L 16.5 670.5 M 30.5 0.5 L 30.5 670.5 M 45.5 0.5 L 45.5 670.5 M 60.5 0.5 L 60.5 670.5 M 89.5 0.5 L 89.5 670.5 M 103.5 0.5 L 103.5 670.5 M 118.5 0.5 L 118.5 670.5 M 133.5 0.5 L 133.5 670.5 M 162.5 0.5 L 162.5 670.5 M 176.5 0.5 L 176.5 670.5 M 191.5 0.5 L 191.5 670.5 M 206.5 0.5 L 206.5 670.5 M 235.5 0.5 L 235.5 670.5 M 250.5 0.5 L 250.5 670.5 M 264.5 0.5 L 264.5 670.5 M 279.5 0.5 L 279.5 670.5 M 308.5 0.5 L 308.5 670.5 M 323.5 0.5 L 323.5 670.5 M 337.5 0.5 L 337.5 670.5 M 352.5 0.5 L 352.5 670.5 M 381.5 0.5 L 381.5 670.5 M 396.5 0.5 L 396.5 670.5 M 410.5 0.5 L 410.5 670.5 M 425.5 0.5 L 425.5 670.5 M 454.5 0.5 L 454.5 670.5 M 469.5 0.5 L 469.5 670.5 M 483.5 0.5 L 483.5 670.5 M 498.5 0.5 L 498.5 670.5 M 527.5 0.5 L 527.5 670.5 M 542.5 0.5 L 542.5 670.5 M 556.5 0.5 L 556.5 670.5 M 571.5 0.5 L 571.5 670.5 M 600.5 0.5 L 600.5 670.5 M 615.5 0.5 L 615.5 670.5 M 629.5 0.5 L 629.5 670.5 M 644.5 0.5 L 644.5 670.5 M 673.5 0.5 L 673.5 670.5 M 688.5 0.5 L 688.5 670.5 M 703.5 0.5 L 703.5 670.5 M 717.5 0.5 L 717.5 670.5 M 746.5 0.5 L 746.5 670.5 M 761.5 0.5 L 761.5 670.5 M 776.5 0.5 L 776.5 670.5 M 790.5 0.5 L 790.5 670.5 M 819.5 0.5 L 819.5 670.5 M 834.5 0.5 L 834.5 670.5 M 849.5 0.5 L 849.5 670.5 M 863.5 0.5 L 863.5 670.5 M 893.5 0.5 L 893.5 670.5 M 907.5 0.5 L 907.5 670.5 M 922.5 0.5 L 922.5 670.5 M 936.5 0.5 L 936.5 670.5 M 966.5 0.5 L 966.5 670.5 M 980.5 0.5 L 980.5 670.5 M 995.5 0.5 L 995.5 670.5 M 1009.5 0.5 L 1009.5 670.5 M 1039.5 0.5 L 1039.5 670.5 M 1053.5 0.5 L 1053.5 670.5 M 1068.5 0.5 L 1068.5 670.5 M 1083.5 0.5 L 1083.5 670.5 M 1112.5 0.5 L 1112.5 670.5 M 1126.5 0.5 L 1126.5 670.5 M 1141.5 0.5 L 1141.5 670.5" stroke-opacity="0.23529411764705882" stroke-linecap="round" stroke-linejoin="round" stroke-miterlimit="10"/><path fill="none" stroke="rgb(192,192,192)" paint-order="fill stroke markers" d=" M 0.5 42.5 L 1156.5 42.5 M 0.5 42.5 L 1156.5 42.5 M 0.5 142.5 L 1156.5 142.5 M 0.5 242.5 L 1156.5 242.5 M 0.5 342.5 L 1156.5 342.5 M 0.5 542.5 L 1156.5 542.5 M 0.5 642.5 L 1156.5 642.5" stroke-opacity="1" stroke-linecap="round" stroke-linejoin="round" stroke-miterlimit="10"/><path fill="none" stroke="rgb(192,192,192)" paint-order="fill stroke markers" d=" M 0.5 2.5 L 1156.5 2.5 M 0.5 2.5 L 1156.5 2.5 M 0.5 22.5 L 1156.5 22.5 M 0.5 62.5 L 1156.5 62.5 M 0.5 82.5 L 1156.5 82.5 M 0.5 102.5 L 1156.5 102.5 M 0.5 122.5 L 1156.5 122.5 M 0.5 162.5 L 1156.5 162.5 M 0.5 182.5 L 1156.5 182.5 M 0.5 202.5 L 1156.5 202.5 M 0.5 222.5 L 1156.5 222.5 M 0.5 262.5 L 1156.5 262.5 M 0.5 282.5 L 1156.5 282.5 M 0.5 302.5 L 1156.5 302.5 M 0.5 322.5 L 1156.5 322.5 M 0.5 362.5 L 1156.5 362.5 M 0.5 382.5 L 1156.5 382.5 M 0.5 402.5 L 1156.5 402.5 M 0.5 422.5 L 1156.5 422.5 M 0.5 462.5 L 1156.5 462.5 M 0.5 482.5 L 1156.5 482.5 M 0.5 502.5 L 1156.5 502.5 M 0.5 522.5 L 1156.5 522.5 M 0.5 562.5 L 1156.5 562.5 M 0.5 582.5 L 1156.5 582.5 M 0.5 602.5 L 1156.5 602.5 M 0.5 622.5 L 1156.5 622.5 M 0.5 662.5 L 1156.5 662.5" stroke-opacity="0.23529411764705882" stroke-linecap="round" stroke-linejoin="round" stroke-miterlimit="10"/><path fill="none" stroke="rgb(0,0,0)" paint-order="fill stroke markers" d=" M 586.5 2.5 L 586.5 670.5" stroke-opacity="1" stroke-miterlimit="10"/><path fill="none" stroke="rgb(0,0,0)" paint-order="fill stroke markers" d=" M 586.5 1.5 L 582.5 5.5" stroke-opacity="1" stroke-miterlimit="10"/><path fill="none" stroke="rgb(0,0,0)" paint-order="fill stroke markers" d=" M 586.5 1.5 L 590.5 5.5" stroke-opacity="1" stroke-miterlimit="10"/><path fill="none" stroke="rgb(0,0,0)" paint-order="fill stroke markers" d=" M 0.5 442.5 L 1154.5 442.5" stroke-opacity="1" stroke-miterlimit="10"/><path fill="none" stroke="rgb(0,0,0)" paint-order="fill stroke markers" d=" M 1155.5 442.5 L 1151.5 438.5" stroke-opacity="1" stroke-miterlimit="10"/><path fill="none" stroke="rgb(0,0,0)" paint-order="fill stroke markers" d=" M 1155.5 442.5 L 1151.5 446.5" stroke-opacity="1" stroke-miterlimit="10"/><text fill="rgb(0,0,0)" stroke="none" font-family="geogebra-sans-serif, sans-serif" font-size="12px" font-style="normal" font-weight="normal" text-decoration="normal" x="60" y="458" text-anchor="start" dominant-baseline="alphabetic" fill-opacity="1">–1400</text><text fill="none" stroke="rgb(255,255,255)" font-family="geogebra-sans-serif, sans-serif" font-size="12px" font-style="normal" font-weight="normal" text-decoration="normal" x="60" y="458" text-anchor="start" dominant-baseline="alphabetic" stroke-opacity="1" stroke-linejoin="bevel" stroke-miterlimit="10" stroke-width="3">–1400</text><text fill="rgb(0,0,0)" stroke="none" font-family="geogebra-sans-serif, sans-serif" font-size="12px" font-style="normal" font-weight="normal" text-decoration="normal" x="60" y="458" text-anchor="start" dominant-baseline="alphabetic" fill-opacity="1">–1400</text><text fill="rgb(0,0,0)" stroke="none" font-family="geogebra-sans-serif, sans-serif" font-size="12px" font-style="normal" font-weight="normal" text-decoration="normal" x="133" y="458" text-anchor="start" dominant-baseline="alphabetic" fill-opacity="1">–1200</text><text fill="none" stroke="rgb(255,255,255)" font-family="geogebra-sans-serif, sans-serif" font-size="12px" font-style="normal" font-weight="normal" text-decoration="normal" x="133" y="458" text-anchor="start" dominant-baseline="alphabetic" stroke-opacity="1" stroke-linejoin="bevel" stroke-miterlimit="10" stroke-width="3">–1200</text><text fill="rgb(0,0,0)" stroke="none" font-family="geogebra-sans-serif, sans-serif" font-size="12px" font-style="normal" font-weight="normal" text-decoration="normal" x="133" y="458" text-anchor="start" dominant-baseline="alphabetic" fill-opacity="1">–1200</text><text fill="rgb(0,0,0)" stroke="none" font-family="geogebra-sans-serif, sans-serif" font-size="12px" font-style="normal" font-weight="normal" text-decoration="normal" x="206" y="458" text-anchor="start" dominant-baseline="alphabetic" fill-opacity="1">–1000</text><text fill="none" stroke="rgb(255,255,255)" font-family="geogebra-sans-serif, sans-serif" font-size="12px" font-style="normal" font-weight="normal" text-decoration="normal" x="206" y="458" text-anchor="start" dominant-baseline="alphabetic" stroke-opacity="1" stroke-linejoin="bevel" stroke-miterlimit="10" stroke-width="3">–1000</text><text fill="rgb(0,0,0)" stroke="none" font-family="geogebra-sans-serif, sans-serif" font-size="12px" font-style="normal" font-weight="normal" text-decoration="normal" x="206" y="458" text-anchor="start" dominant-baseline="alphabetic" fill-opacity="1">–1000</text><text fill="rgb(0,0,0)" stroke="none" font-family="geogebra-sans-serif, sans-serif" font-size="12px" font-style="normal" font-weight="normal" text-decoration="normal" x="282" y="458" text-anchor="start" dominant-baseline="alphabetic" fill-opacity="1">–800</text><text fill="none" stroke="rgb(255,255,255)" font-family="geogebra-sans-serif, sans-serif" font-size="12px" font-style="normal" font-weight="normal" text-decoration="normal" x="282" y="458" text-anchor="start" dominant-baseline="alphabetic" stroke-opacity="1" stroke-linejoin="bevel" stroke-miterlimit="10" stroke-width="3">–800</text><text fill="rgb(0,0,0)" stroke="none" font-family="geogebra-sans-serif, sans-serif" font-size="12px" font-style="normal" font-weight="normal" text-decoration="normal" x="282" y="458" text-anchor="start" dominant-baseline="alphabetic" fill-opacity="1">–800</text><text fill="rgb(0,0,0)" stroke="none" font-family="geogebra-sans-serif, sans-serif" font-size="12px" font-style="normal" font-weight="normal" text-decoration="normal" x="355" y="458" text-anchor="start" dominant-baseline="alphabetic" fill-opacity="1">–600</text><text fill="none" stroke="rgb(255,255,255)" font-family="geogebra-sans-serif, sans-serif" font-size="12px" font-style="normal" font-weight="normal" text-decoration="normal" x="355" y="458" text-anchor="start" dominant-baseline="alphabetic" stroke-opacity="1" stroke-linejoin="bevel" stroke-miterlimit="10" stroke-width="3">–600</text><text fill="rgb(0,0,0)" stroke="none" font-family="geogebra-sans-serif, sans-serif" font-size="12px" font-style="normal" font-weight="normal" text-decoration="normal" x="355" y="458" text-anchor="start" dominant-baseline="alphabetic" fill-opacity="1">–600</text><text fill="rgb(0,0,0)" stroke="none" font-family="geogebra-sans-serif, sans-serif" font-size="12px" font-style="normal" font-weight="normal" text-decoration="normal" x="428" y="458" text-anchor="start" dominant-baseline="alphabetic" fill-opacity="1">–400</text><text fill="none" stroke="rgb(255,255,255)" font-family="geogebra-sans-serif, sans-serif" font-size="12px" font-style="normal" font-weight="normal" text-decoration="normal" x="428" y="458" text-anchor="start" dominant-baseline="alphabetic" stroke-opacity="1" stroke-linejoin="bevel" stroke-miterlimit="10" stroke-width="3">–400</text><text fill="rgb(0,0,0)" stroke="none" font-family="geogebra-sans-serif, sans-serif" font-size="12px" font-style="normal" font-weight="normal" text-decoration="normal" x="428" y="458" text-anchor="start" dominant-baseline="alphabetic" fill-opacity="1">–400</text><text fill="rgb(0,0,0)" stroke="none" font-family="geogebra-sans-serif, sans-serif" font-size="12px" font-style="normal" font-weight="normal" text-decoration="normal" x="502" y="458" text-anchor="start" dominant-baseline="alphabetic" fill-opacity="1">–200</text><text fill="none" stroke="rgb(255,255,255)" font-family="geogebra-sans-serif, sans-serif" font-size="12px" font-style="normal" font-weight="normal" text-decoration="normal" x="502" y="458" text-anchor="start" dominant-baseline="alphabetic" stroke-opacity="1" stroke-linejoin="bevel" stroke-miterlimit="10" stroke-width="3">–200</text><text fill="rgb(0,0,0)" stroke="none" font-family="geogebra-sans-serif, sans-serif" font-size="12px" font-style="normal" font-weight="normal" text-decoration="normal" x="502" y="458" text-anchor="start" dominant-baseline="alphabetic" fill-opacity="1">–200</text><text fill="rgb(0,0,0)" stroke="none" font-family="geogebra-sans-serif, sans-serif" font-size="12px" font-style="normal" font-weight="normal" text-decoration="normal" x="651" y="458" text-anchor="start" dominant-baseline="alphabetic" fill-opacity="1">200</text><text fill="none" stroke="rgb(255,255,255)" font-family="geogebra-sans-serif, sans-serif" font-size="12px" font-style="normal" font-weight="normal" text-decoration="normal" x="651" y="458" text-anchor="start" dominant-baseline="alphabetic" stroke-opacity="1" stroke-linejoin="bevel" stroke-miterlimit="10" stroke-width="3">200</text><text fill="rgb(0,0,0)" stroke="none" font-family="geogebra-sans-serif, sans-serif" font-size="12px" font-style="normal" font-weight="normal" text-decoration="normal" x="651" y="458" text-anchor="start" dominant-baseline="alphabetic" fill-opacity="1">200</text><text fill="rgb(0,0,0)" stroke="none" font-family="geogebra-sans-serif, sans-serif" font-size="12px" font-style="normal" font-weight="normal" text-decoration="normal" x="724" y="458" text-anchor="start" dominant-baseline="alphabetic" fill-opacity="1">400</text><text fill="none" stroke="rgb(255,255,255)" font-family="geogebra-sans-serif, sans-serif" font-size="12px" font-style="normal" font-weight="normal" text-decoration="normal" x="724" y="458" text-anchor="start" dominant-baseline="alphabetic" stroke-opacity="1" stroke-linejoin="bevel" stroke-miterlimit="10" stroke-width="3">400</text><text fill="rgb(0,0,0)" stroke="none" font-family="geogebra-sans-serif, sans-serif" font-size="12px" font-style="normal" font-weight="normal" text-decoration="normal" x="724" y="458" text-anchor="start" dominant-baseline="alphabetic" fill-opacity="1">400</text><text fill="rgb(0,0,0)" stroke="none" font-family="geogebra-sans-serif, sans-serif" font-size="12px" font-style="normal" font-weight="normal" text-decoration="normal" x="797" y="458" text-anchor="start" dominant-baseline="alphabetic" fill-opacity="1">600</text><text fill="none" stroke="rgb(255,255,255)" font-family="geogebra-sans-serif, sans-serif" font-size="12px" font-style="normal" font-weight="normal" text-decoration="normal" x="797" y="458" text-anchor="start" dominant-baseline="alphabetic" stroke-opacity="1" stroke-linejoin="bevel" stroke-miterlimit="10" stroke-width="3">600</text><text fill="rgb(0,0,0)" stroke="none" font-family="geogebra-sans-serif, sans-serif" font-size="12px" font-style="normal" font-weight="normal" text-decoration="normal" x="797" y="458" text-anchor="start" dominant-baseline="alphabetic" fill-opacity="1">600</text><text fill="rgb(0,0,0)" stroke="none" font-family="geogebra-sans-serif, sans-serif" font-size="12px" font-style="normal" font-weight="normal" text-decoration="normal" x="870" y="458" text-anchor="start" dominant-baseline="alphabetic" fill-opacity="1">800</text><text fill="none" stroke="rgb(255,255,255)" font-family="geogebra-sans-serif, sans-serif" font-size="12px" font-style="normal" font-weight="normal" text-decoration="normal" x="870" y="458" text-anchor="start" dominant-baseline="alphabetic" stroke-opacity="1" stroke-linejoin="bevel" stroke-miterlimit="10" stroke-width="3">800</text><text fill="rgb(0,0,0)" stroke="none" font-family="geogebra-sans-serif, sans-serif" font-size="12px" font-style="normal" font-weight="normal" text-decoration="normal" x="870" y="458" text-anchor="start" dominant-baseline="alphabetic" fill-opacity="1">800</text><text fill="rgb(0,0,0)" stroke="none" font-family="geogebra-sans-serif, sans-serif" font-size="12px" font-style="normal" font-weight="normal" text-decoration="normal" x="940" y="458" text-anchor="start" dominant-baseline="alphabetic" fill-opacity="1">1000</text><text fill="none" stroke="rgb(255,255,255)" font-family="geogebra-sans-serif, sans-serif" font-size="12px" font-style="normal" font-weight="normal" text-decoration="normal" x="940" y="458" text-anchor="start" dominant-baseline="alphabetic" stroke-opacity="1" stroke-linejoin="bevel" stroke-miterlimit="10" stroke-width="3">1000</text><text fill="rgb(0,0,0)" stroke="none" font-family="geogebra-sans-serif, sans-serif" font-size="12px" font-style="normal" font-weight="normal" text-decoration="normal" x="940" y="458" text-anchor="start" dominant-baseline="alphabetic" fill-opacity="1">1000</text><text fill="rgb(0,0,0)" stroke="none" font-family="geogebra-sans-serif, sans-serif" font-size="12px" font-style="normal" font-weight="normal" text-decoration="normal" x="1013" y="458" text-anchor="start" dominant-baseline="alphabetic" fill-opacity="1">1200</text><text fill="none" stroke="rgb(255,255,255)" font-family="geogebra-sans-serif, sans-serif" font-size="12px" font-style="normal" font-weight="normal" text-decoration="normal" x="1013" y="458" text-anchor="start" dominant-baseline="alphabetic" stroke-opacity="1" stroke-linejoin="bevel" stroke-miterlimit="10" stroke-width="3">1200</text><text fill="rgb(0,0,0)" stroke="none" font-family="geogebra-sans-serif, sans-serif" font-size="12px" font-style="normal" font-weight="normal" text-decoration="normal" x="1013" y="458" text-anchor="start" dominant-baseline="alphabetic" fill-opacity="1">1200</text><text fill="rgb(0,0,0)" stroke="none" font-family="geogebra-sans-serif, sans-serif" font-size="12px" font-style="normal" font-weight="normal" text-decoration="normal" x="1086" y="458" text-anchor="start" dominant-baseline="alphabetic" fill-opacity="1">1400</text><text fill="none" stroke="rgb(255,255,255)" font-family="geogebra-sans-serif, sans-serif" font-size="12px" font-style="normal" font-weight="normal" text-decoration="normal" x="1086" y="458" text-anchor="start" dominant-baseline="alphabetic" stroke-opacity="1" stroke-linejoin="bevel" stroke-miterlimit="10" stroke-width="3">1400</text><text fill="rgb(0,0,0)" stroke="none" font-family="geogebra-sans-serif, sans-serif" font-size="12px" font-style="normal" font-weight="normal" text-decoration="normal" x="1086" y="458" text-anchor="start" dominant-baseline="alphabetic" fill-opacity="1">1400</text><text fill="rgb(0,0,0)" stroke="none" font-family="geogebra-sans-serif, sans-serif" font-size="12px" font-style="normal" font-weight="normal" text-decoration="normal" x="559" y="647" text-anchor="start" dominant-baseline="alphabetic" fill-opacity="1">–40</text><text fill="none" stroke="rgb(255,255,255)" font-family="geogebra-sans-serif, sans-serif" font-size="12px" font-style="normal" font-weight="normal" text-decoration="normal" x="559" y="647" text-anchor="start" dominant-baseline="alphabetic" stroke-opacity="1" stroke-linejoin="bevel" stroke-miterlimit="10" stroke-width="3">–40</text><text fill="rgb(0,0,0)" stroke="none" font-family="geogebra-sans-serif, sans-serif" font-size="12px" font-style="normal" font-weight="normal" text-decoration="normal" x="559" y="647" text-anchor="start" dominant-baseline="alphabetic" fill-opacity="1">–40</text><text fill="rgb(0,0,0)" stroke="none" font-family="geogebra-sans-serif, sans-serif" font-size="12px" font-style="normal" font-weight="normal" text-decoration="normal" x="559" y="547" text-anchor="start" dominant-baseline="alphabetic" fill-opacity="1">–20</text><text fill="none" stroke="rgb(255,255,255)" font-family="geogebra-sans-serif, sans-serif" font-size="12px" font-style="normal" font-weight="normal" text-decoration="normal" x="559" y="547" text-anchor="start" dominant-baseline="alphabetic" stroke-opacity="1" stroke-linejoin="bevel" stroke-miterlimit="10" stroke-width="3">–20</text><text fill="rgb(0,0,0)" stroke="none" font-family="geogebra-sans-serif, sans-serif" font-size="12px" font-style="normal" font-weight="normal" text-decoration="normal" x="559" y="547" text-anchor="start" dominant-baseline="alphabetic" fill-opacity="1">–20</text><text fill="rgb(0,0,0)" stroke="none" font-family="geogebra-sans-serif, sans-serif" font-size="12px" font-style="normal" font-weight="normal" text-decoration="normal" x="566" y="347" text-anchor="start" dominant-baseline="alphabetic" fill-opacity="1">20</text><text fill="none" stroke="rgb(255,255,255)" font-family="geogebra-sans-serif, sans-serif" font-size="12px" font-style="normal" font-weight="normal" text-decoration="normal" x="566" y="347" text-anchor="start" dominant-baseline="alphabetic" stroke-opacity="1" stroke-linejoin="bevel" stroke-miterlimit="10" stroke-width="3">20</text><text fill="rgb(0,0,0)" stroke="none" font-family="geogebra-sans-serif, sans-serif" font-size="12px" font-style="normal" font-weight="normal" text-decoration="normal" x="566" y="347" text-anchor="start" dominant-baseline="alphabetic" fill-opacity="1">20</text><text fill="rgb(0,0,0)" stroke="none" font-family="geogebra-sans-serif, sans-serif" font-size="12px" font-style="normal" font-weight="normal" text-decoration="normal" x="566" y="247" text-anchor="start" dominant-baseline="alphabetic" fill-opacity="1">40</text><text fill="none" stroke="rgb(255,255,255)" font-family="geogebra-sans-serif, sans-serif" font-size="12px" font-style="normal" font-weight="normal" text-decoration="normal" x="566" y="247" text-anchor="start" dominant-baseline="alphabetic" stroke-opacity="1" stroke-linejoin="bevel" stroke-miterlimit="10" stroke-width="3">40</text><text fill="rgb(0,0,0)" stroke="none" font-family="geogebra-sans-serif, sans-serif" font-size="12px" font-style="normal" font-weight="normal" text-decoration="normal" x="566" y="247" text-anchor="start" dominant-baseline="alphabetic" fill-opacity="1">40</text><text fill="rgb(0,0,0)" stroke="none" font-family="geogebra-sans-serif, sans-serif" font-size="12px" font-style="normal" font-weight="normal" text-decoration="normal" x="566" y="147" text-anchor="start" dominant-baseline="alphabetic" fill-opacity="1">60</text><text fill="none" stroke="rgb(255,255,255)" font-family="geogebra-sans-serif, sans-serif" font-size="12px" font-style="normal" font-weight="normal" text-decoration="normal" x="566" y="147" text-anchor="start" dominant-baseline="alphabetic" stroke-opacity="1" stroke-linejoin="bevel" stroke-miterlimit="10" stroke-width="3">60</text><text fill="rgb(0,0,0)" stroke="none" font-family="geogebra-sans-serif, sans-serif" font-size="12px" font-style="normal" font-weight="normal" text-decoration="normal" x="566" y="147" text-anchor="start" dominant-baseline="alphabetic" fill-opacity="1">60</text><text fill="rgb(0,0,0)" stroke="none" font-family="geogebra-sans-serif, sans-serif" font-size="12px" font-style="normal" font-weight="normal" text-decoration="normal" x="566" y="47" text-anchor="start" dominant-baseline="alphabetic" fill-opacity="1">80</text><text fill="none" stroke="rgb(255,255,255)" font-family="geogebra-sans-serif, sans-serif" font-size="12px" font-style="normal" font-weight="normal" text-decoration="normal" x="566" y="47" text-anchor="start" dominant-baseline="alphabetic" stroke-opacity="1" stroke-linejoin="bevel" stroke-miterlimit="10" stroke-width="3">80</text><text fill="rgb(0,0,0)" stroke="none" font-family="geogebra-sans-serif, sans-serif" font-size="12px" font-style="normal" font-weight="normal" text-decoration="normal" x="566" y="47" text-anchor="start" dominant-baseline="alphabetic" fill-opacity="1">80</text><text fill="rgb(0,0,0)" stroke="none" font-family="geogebra-sans-serif, sans-serif" font-size="12px" font-style="normal" font-weight="normal" text-decoration="normal" x="572" y="458" text-anchor="start" dominant-baseline="alphabetic" fill-opacity="1">0</text><text fill="none" stroke="rgb(255,255,255)" font-family="geogebra-sans-serif, sans-serif" font-size="12px" font-style="normal" font-weight="normal" text-decoration="normal" x="572" y="458" text-anchor="start" dominant-baseline="alphabetic" stroke-opacity="1" stroke-linejoin="bevel" stroke-miterlimit="10" stroke-width="3">0</text><text fill="rgb(0,0,0)" stroke="none" font-family="geogebra-sans-serif, sans-serif" font-size="12px" font-style="normal" font-weight="normal" text-decoration="normal" x="572" y="458" text-anchor="start" dominant-baseline="alphabetic" fill-opacity="1">0</text><path fill="none" stroke="rgb(21,101,192)" paint-order="fill stroke markers" d=" M 0 282.40902832374707 L 4.515625 282.41017891200966 L 9.03125 282.41141432314555 L 13.546875 282.4127408089489 L 18.0625 282.4141650817737 L 22.578125 282.4156943484285 L 27.09375 282.4173363465599 L 31.609375 282.419099383708 L 36.125 282.42099237922776 L 40.640625 282.4230249092863 L 45.15625 282.4252072551607 L 49.671875 282.427550455076 L 54.1875 282.4300663598426 L 58.703125 282.4327676925688 L 63.21875 282.43566811274485 L 67.734375 282.4387822850166 L 72.25 282.44212595298836 L 76.76562500000006 282.4457160184199 L 81.28125 282.4495706262077 L 85.79687500000006 282.453709255569 L 90.3125 282.45815281787577 L 94.82812500000006 282.4629237616181 L 99.34375 282.46804618500914 L 103.85937500000006 282.4735459567819 L 108.375 282.479450845762 L 112.89062500000006 282.4857906598465 L 117.40625000000006 282.49259739505806 L 121.921875 282.49990539539164 L 126.4375 282.5077515242187 L 130.953125 282.5161753480677 L 135.46875000000006 282.5252193336521 L 139.984375 282.534929059077 L 144.5 282.5453534402169 L 149.015625 282.55654497332216 L 153.53125000000006 282.56855999498 L 158.046875 282.5814589606289 L 162.5625 282.59530674290085 L 167.078125 282.6101729511467 L 171.59375000000006 282.6261322735819 L 176.109375 282.64326484357923 L 180.62499999999994 282.66165663172484 L 185.140625 282.68139986534936 L 189.65625000000006 282.7025934773428 L 194.171875 282.7253435861642 L 198.68749999999994 282.7497640090595 L 203.203125 282.7759768106069 L 207.71875000000006 282.80411288881703 L 212.234375 282.8343126011217 L 216.75000000000006 282.8667264326941 L 221.26562500000006 282.90151570964713 L 225.78125000000006 282.938853359763 L 230.29687500000006 282.97892472350105 L 234.81250000000006 283.0219284181272 L 239.32812500000006 283.06807725788553 L 243.84375000000006 283.117599233208 L 248.35937500000006 283.1707385520077 L 252.87500000000006 283.2277567461396 L 257.39062500000006 283.2889338461233 L 261.90625000000006 283.3545696272006 L 266.42187500000006 283.4249849297511 L 270.93750000000006 283.5005230569884 L 275.45312500000006 283.58155125271435 L 279.96875 283.66846226169747 L 284.484375 283.76167597496914 L 289 283.8616411619639 L 293.515625 283.9688372909784 L 298.03125 284.08377643885365 L 302.546875 284.20700529009116 L 307.0625 284.3391072247723 L 311.578125 284.4807044936403 L 316.09375 284.63246047750926 L 320.609375 284.79508202674884 L 325.125 284.96932187494326 L 329.640625 285.15598111889665 L 334.15625 285.3559117549358 L 338.671875 285.57001925890347 L 343.1875 285.7992651943133 L 347.703125 286.0446698298176 L 352.21875 286.30731474338324 L 356.734375 286.5883453863552 L 361.25 286.8889735758731 L 365.76562500000006 287.2104798788763 L 370.28125000000006 287.55421584516944 L 374.79687500000006 287.92160604070426 L 379.3125 288.31414982538683 L 383.82812500000006 288.7334228123399 L 388.34375 289.18107793769866 L 392.859375 289.65884606174484 L 397.375 290.16853601359225 L 401.890625 290.71203398285877 L 406.40625 291.2913021529693 L 410.921875 291.90837646216005 L 415.4375 292.5653633701771 L 419.953125 293.2644355014321 L 424.46875 294.00782602939984 L 428.984375 294.79782166282223 L 433.5000000000001 295.6367540923551 L 438.015625 296.52698975732017 L 442.53125000000006 297.4709177968832 L 447.046875 298.4709360590349 L 451.56250000000006 299.5294350549947 L 456.078125 300.64877976688314 L 460.59375000000006 301.8312892434963 L 465.109375 303.0792139534632 L 469.62500000000006 304.3947109075446 L 474.140625 305.7798166127185 L 478.65625000000006 307.23641798009544 L 483.171875 308.76622137636747 L 487.68750000000006 310.3707200837349 L 492.203125 312.05116051487266 L 496.71875000000006 313.80850761570616 L 501.234375 315.6434099771493 L 505.75000000000006 317.55616526443544 L 510.265625 319.5466866555497 L 514.78125 321.61447105428095 L 519.296875 323.75856990386114 L 523.8125 325.9775634691362 L 528.328125 328.2695394737962 L 532.84375 330.6320769698432 L 537.359375 333.06223627530386 L 541.875 335.556555740431 L 546.390625 338.11105599090877 L 550.90625 340.72125214933214 L 555.421875 343.3821743558792 L 559.9375 346.08839670023997 L 564.453125 348.8340744461785 L 568.96875 351.6129891862181 L 573.484375 354.41860131699667 L 578 357.2441089870164 L 582.5156250000001 360.0825124493068 L 587.03125 362.92668256301863 L 591.5468750000001 365.76943204005636 L 596.0625 368.6035879335163 L 600.5781250000001 371.422063819379 L 605.09375 374.21793013411855 L 609.6093750000001 376.984481198023 L 614.125 379.71529757334514 L 618.6406250000001 382.4043025714241 L 623.15625 385.04581192480873 L 627.6718750000001 387.63457586873625 L 632.1875 390.16581311972004 L 636.7031250000001 392.63523648602836 L 641.21875 395.03907008464716 L 645.734375 397.3740583623129 L 650.25 399.6374673164816 L 654.765625 401.82707847980237 L 659.28125 403.9411763650547 L 663.796875 405.97853016497646 L 668.3125 407.9383705632604 L 672.828125 409.8203625411964 L 677.34375 411.62457506224393 L 681.859375 413.3514484884235 L 686.375 415.0017605325501 L 690.890625 416.57659148394515 L 695.40625 418.0772893672094 L 699.921875 419.5054356084666 L 704.4375 420.8628116952406 L 708.953125 422.1513672282765 L 713.46875 423.3731896789668 L 717.984375 424.53047608676616 L 722.5 425.6255068586191 L 727.015625 426.6606217679705 L 731.5312500000001 427.63819819488776 L 736.046875 428.5606316012837 L 740.5625000000001 429.43031819598485 L 745.078125 430.249639712962 L 749.5937500000001 431.020950201816 L 754.1093750000001 431.74656471183977 L 758.625 432.4287497388825 L 763.140625 433.0697152970145 L 767.65625 433.6716084738537 L 772.1718750000001 434.2365083286399 L 776.6875 434.76642199504226 L 781.203125 435.26328185566865 L 785.71875 435.7289436617686 L 790.2343750000001 436.1651854792337 L 794.75 436.5737073503093 L 799.265625 436.9561315691234 L 803.78125 437.3140034779462 L 808.2968750000001 437.6487926998186 L 812.8125 437.9618947316665 L 817.328125 438.2546328301338 L 821.84375 438.52826013004045 L 826.3593750000001 438.7839619425412 L 830.875 439.0228581867027 L 835.390625 439.2460059143099 L 839.90625 439.4544018932693 L 844.4218750000001 439.64898521999424 L 848.9375 439.83063993567714 L 853.453125 440.0001976253784 L 857.96875 440.15843998244725 L 862.4843750000001 440.30610132394327 L 867.0000000000001 440.4438710455058 L 871.515625 440.5723960065362 L 876.03125 440.6922828386607 L 880.546875 440.80410017225466 L 885.0625000000001 440.90838077736413 L 889.578125 441.00562361668364 L 894.09375 441.0962958093717 L 898.609375 441.18083450542355 L 903.1250000000001 441.259648671102 L 907.640625 441.3331207865711 L 912.15625 441.40160845739746 L 916.671875 441.46544594200196 L 921.1875000000001 441.5249455974713 L 925.703125 441.5803992463874 L 930.21875 441.6320794675163 L 934.734375 441.6802408133237 L 939.2500000000001 441.72512095736556 L 943.765625 441.76694177463804 L 948.28125 441.80591035798125 L 952.796875 441.84221997360777 L 957.3125000000001 441.8760509587833 L 961.828125 441.9075715646289 L 966.34375 441.93693874693406 L 970.859375 441.96429890778876 L 975.3750000000001 441.9897885907439 L 979.890625 442.0135351321122 L 984.40625 442.0356572709153 L 988.921875 442.05626571987665 L 993.4375000000001 442.0754636997532 L 997.953125 442.09334743918816 L 1002.46875 442.1100066421645 L 1006.984375 442.1255249250301 L 1011.5000000000001 442.13998022496565 L 1016.0156250000001 442.15344518166523 L 1020.53125 442.16598749390266 L 1025.046875 442.1776702525656 L 1029.5625 442.18855225164583 L 1034.078125 442.1986882785928 L 1038.59375 442.208129385351 L 1043.109375 442.2169231413274 L 1047.625 442.2251138694566 L 1052.140625 442.23274286646347 L 1056.65625 442.23984860835435 L 1061.171875 442.24646694210435 L 1065.6875 442.2526312644479 L 1070.203125 442.25837268862375 L 1074.71875 442.2637201998693 L 1079.234375 442.268700800412 L 1083.75 442.27333964465566 L 1088.265625 442.2776601652137 L 1092.78125 442.2816841904024 L 1097.296875 442.28543205376377 L 1101.8125 442.2889226961538 L 1106.328125 442.29217376089395 L 1110.84375 442.2952016824534 L 1115.359375 442.2980217690975 L 1119.875 442.3006482799085 L 1124.390625 442.3030944965599 L 1128.90625 442.3053727901984 L 1133.421875 442.30749468376445 L 1137.9375 442.3094709100607 L 1142.453125 442.3113114658571 L 1146.96875 442.31302566230005 L 1151.484375 442.3146221718795 L 1156 442.3161090721845" stroke-opacity="0.8" stroke-linecap="round" stroke-linejoin="round" stroke-miterlimit="10" stroke-width="2.5"/><text fill="rgb(21,101,192)" stroke="none" font-family="geogebra-sans-serif, sans-serif" font-size="16px" font-style="normal" font-weight="normal" text-decoration="normal" x="5" y="297" text-anchor="start" dominant-baseline="alphabetic" fill-opacity="1">g</text><text fill="none" stroke="rgb(255,255,255)" font-family="geogebra-sans-serif, sans-serif" font-size="16px" font-style="normal" font-weight="normal" text-decoration="normal" x="5" y="297" text-anchor="start" dominant-baseline="alphabetic" stroke-opacity="1" stroke-linejoin="bevel" stroke-miterlimit="10" stroke-width="3">g</text><text fill="rgb(21,101,192)" stroke="none" font-family="geogebra-sans-serif, sans-serif" font-size="16px" font-style="normal" font-weight="normal" text-decoration="normal" x="5" y="297" text-anchor="start" dominant-baseline="alphabetic" fill-opacity="1">g</text></g></g></svg>