<?xml version="1.0" encoding="utf-8"?>
<!-- Generator: Adobe Illustrator 24.1.2, SVG Export Plug-In . SVG Version: 6.00 Build 0)  -->
<svg version="1.1" id="Layer_1" xmlns="http://www.w3.org/2000/svg" xmlns:xlink="http://www.w3.org/1999/xlink" x="0px" y="0px"
	 viewBox="0 0 1156 670" style="enable-background:new 0 0 1156 670;" xml:space="preserve">
<style type="text/css">
	.st0{clip-path:url(#SVGID_2_);}
	.st1{fill:#020202;}
	.st2{fill:none;stroke:#C0C0C0;stroke-linecap:round;stroke-linejoin:round;stroke-miterlimit:10;}
	.st3{fill:none;stroke:#C0C0C0;stroke-linecap:round;stroke-linejoin:round;stroke-miterlimit:10;stroke-opacity:0.2353;}
	.st4{fill:none;stroke:#FFFFFF;stroke-miterlimit:10;}
	.st5{fill:none;stroke:#000000;stroke-miterlimit:10;}
	.st6{fill:#FFFFFF;}
	.st7{font-family:'Helvetica';}
	.st8{font-size:12px;}
	
		.st9{fill:none;stroke:#4CFFFF;stroke-width:2.5;stroke-linecap:round;stroke-linejoin:round;stroke-miterlimit:10;stroke-opacity:0.8;}
	.st10{fill:#1565C0;}
	.st11{font-size:16px;}
	.st12{fill:none;stroke:#FFFFFF;stroke-width:3;stroke-linejoin:bevel;stroke-miterlimit:10;}
</style>
<g>
	<defs>
		<rect id="SVGID_1_" width="1156" height="670"/>
	</defs>
	<clipPath id="SVGID_2_">
		<use xlink:href="#SVGID_1_"  style="overflow:visible;"/>
	</clipPath>
	<g transform="scale(1,1)" class="st0">
		<g>
			<rect class="st1" width="1156" height="670"/>
			<path class="st2" d="M1.5,0.5v670 M1.5,0.5v670 M74.5,0.5v670 M147.5,0.5v670 M220.5,0.5v670 M293.5,0.5v670 M366.5,0.5v670
				 M439.5,0.5v670 M513.5,0.5v670 M659.5,0.5v670 M732.5,0.5v670 M805.5,0.5v670 M878.5,0.5v670 M951.5,0.5v670 M1024.5,0.5v670
				 M1097.5,0.5v670"/>
			<path class="st3" d="M16.5,0.5v670 M30.5,0.5v670 M45.5,0.5v670 M60.5,0.5v670 M89.5,0.5v670 M103.5,0.5v670 M118.5,0.5v670
				 M133.5,0.5v670 M162.5,0.5v670 M176.5,0.5v670 M191.5,0.5v670 M206.5,0.5v670 M235.5,0.5v670 M250.5,0.5v670 M264.5,0.5v670
				 M279.5,0.5v670 M308.5,0.5v670 M323.5,0.5v670 M337.5,0.5v670 M352.5,0.5v670 M381.5,0.5v670 M396.5,0.5v670 M410.5,0.5v670
				 M425.5,0.5v670 M454.5,0.5v670 M469.5,0.5v670 M483.5,0.5v670 M498.5,0.5v670 M527.5,0.5v670 M542.5,0.5v670 M556.5,0.5v670
				 M571.5,0.5v670 M600.5,0.5v670 M615.5,0.5v670 M629.5,0.5v670 M644.5,0.5v670 M673.5,0.5v670 M688.5,0.5v670 M703.5,0.5v670
				 M717.5,0.5v670 M746.5,0.5v670 M761.5,0.5v670 M776.5,0.5v670 M790.5,0.5v670 M819.5,0.5v670 M834.5,0.5v670 M849.5,0.5v670
				 M863.5,0.5v670 M893.5,0.5v670 M907.5,0.5v670 M922.5,0.5v670 M936.5,0.5v670 M966.5,0.5v670 M980.5,0.5v670 M995.5,0.5v670
				 M1009.5,0.5v670 M1039.5,0.5v670 M1053.5,0.5v670 M1068.5,0.5v670 M1083.5,0.5v670 M1112.5,0.5v670 M1126.5,0.5v670 M1141.5,0.5
				v670"/>
			<path class="st2" d="M0.5,42.5h1156 M0.5,42.5h1156 M0.5,142.5h1156 M0.5,242.5h1156 M0.5,342.5h1156 M0.5,542.5h1156 M0.5,642.5
				h1156"/>
			<path class="st3" d="M0.5,2.5h1156 M0.5,2.5h1156 M0.5,22.5h1156 M0.5,62.5h1156 M0.5,82.5h1156 M0.5,102.5h1156 M0.5,122.5h1156
				 M0.5,162.5h1156 M0.5,182.5h1156 M0.5,202.5h1156 M0.5,222.5h1156 M0.5,262.5h1156 M0.5,282.5h1156 M0.5,302.5h1156 M0.5,322.5
				h1156 M0.5,362.5h1156 M0.5,382.5h1156 M0.5,402.5h1156 M0.5,422.5h1156 M0.5,462.5h1156 M0.5,482.5h1156 M0.5,502.5h1156
				 M0.5,522.5h1156 M0.5,562.5h1156 M0.5,582.5h1156 M0.5,602.5h1156 M0.5,622.5h1156 M0.5,662.5h1156"/>
			<path class="st4" d="M586.5,2.5v668"/>
			<path class="st5" d="M586.5,1.5l-4,4"/>
			<path class="st5" d="M586.5,1.5l4,4"/>
			<path class="st4" d="M0.5,442.5h1154"/>
			<path class="st5" d="M1155.5,442.5l-4-4"/>
			<path class="st5" d="M1155.5,442.5l-4,4"/>
			<text transform="matrix(1 0 0 1 39.5286 458)" class="st6 st7 st8">–1400</text>
			<text transform="matrix(1 0 0 1 112.5286 458)" class="st6 st7 st8">–1200</text>
			<text transform="matrix(1 0 0 1 185.5286 458)" class="st6 st7 st8">–1000</text>
			<text transform="matrix(1 0 0 1 261.5286 458)" class="st6 st7 st8">–800</text>
			<text transform="matrix(1 0 0 1 334.5286 458)" class="st6 st7 st8">–600</text>
			<text transform="matrix(1 0 0 1 407.5286 458)" class="st6 st7 st8">–400</text>
			<text transform="matrix(1 0 0 1 481.5286 458)" class="st6 st7 st8">–200</text>
			<text transform="matrix(1 0 0 1 651 458)" class="st7 st8">200</text>
			<text transform="matrix(1 0 0 1 630.5286 458)" class="st6 st7 st8">200</text>
			<text transform="matrix(1 0 0 1 703.5286 458)" class="st6 st7 st8">400</text>
			<text transform="matrix(1 0 0 1 776.5286 458)" class="st6 st7 st8">600</text>
			<text transform="matrix(1 0 0 1 849.5286 458)" class="st6 st7 st8">800</text>
			<text transform="matrix(1 0 0 1 919.5286 458)" class="st6 st7 st8">1000</text>
			<text transform="matrix(1 0 0 1 992.5286 458)" class="st6 st7 st8">1200</text>
			<text transform="matrix(1 0 0 1 1065.5286 458)" class="st6 st7 st8">1400</text>
			<text transform="matrix(1 0 0 1 559.4714 636.2)" class="st6 st7 st8">–40</text>
			<text transform="matrix(1 0 0 1 559.4714 536.2)" class="st6 st7 st8">–20</text>
			<text transform="matrix(1 0 0 1 566.4714 336.2)" class="st6 st7 st8">20</text>
			<text transform="matrix(1 0 0 1 566.4714 236.2)" class="st6 st7 st8">40</text>
			<text transform="matrix(1 0 0 1 566.4714 136.2)" class="st6 st7 st8">60</text>
			<text transform="matrix(1 0 0 1 566.4714 36.2)" class="st6 st7 st8">80</text>
			<text transform="matrix(1 0 0 1 568.5859 457.9999)" class="st6 st7 st8">0</text>
			<path class="st9" d="M0,282.4l4.5,0l4.5,0l4.5,0l4.5,0l4.5,0l4.5,0l4.5,0l4.5,0l4.5,0l4.5,0l4.5,0l4.5,0l4.5,0l4.5,0l4.5,0l4.5,0
				l4.5,0l4.5,0l4.5,0l4.5,0l4.5,0l4.5,0l4.5,0l4.5,0l4.5,0l4.5,0l4.5,0l4.5,0l4.5,0l4.5,0l4.5,0l4.5,0l4.5,0l4.5,0l4.5,0l4.5,0
				l4.5,0l4.5,0l4.5,0l4.5,0l4.5,0l4.5,0l4.5,0l4.5,0l4.5,0l4.5,0l4.5,0l4.5,0l4.5,0l4.5,0l4.5,0l4.5,0l4.5,0l4.5,0l4.5,0.1l4.5,0.1
				l4.5,0.1l4.5,0.1l4.5,0.1l4.5,0.1l4.5,0.1l4.5,0.1l4.5,0.1l4.5,0.1l4.5,0.1l4.5,0.1l4.5,0.1l4.5,0.1l4.5,0.1l4.5,0.2l4.5,0.2
				l4.5,0.2l4.5,0.2l4.5,0.2l4.5,0.2l4.5,0.2l4.5,0.2l4.5,0.3l4.5,0.3l4.5,0.3l4.5,0.3l4.5,0.3l4.5,0.4l4.5,0.4l4.5,0.4l4.5,0.4
				l4.5,0.5l4.5,0.5l4.5,0.5l4.5,0.6l4.5,0.6l4.5,0.7l4.5,0.7l4.5,0.7l4.5,0.8l4.5,0.8l4.5,0.9l4.5,0.9l4.5,1l4.5,1.1l4.5,1.1
				l4.5,1.2l4.5,1.2l4.5,1.3l4.5,1.4l4.5,1.5l4.5,1.5l4.5,1.6l4.5,1.7l4.5,1.8l4.5,1.8l4.5,1.9l4.5,2l4.5,2.1l4.5,2.1l4.5,2.2
				l4.5,2.3l4.5,2.4l4.5,2.4l4.5,2.5l4.5,2.6l4.5,2.6l4.5,2.7l4.5,2.7l4.5,2.7l4.5,2.8l4.5,2.8l4.5,2.8l4.5,2.8l4.5,2.8l4.5,2.8
				l4.5,2.8l4.5,2.8l4.5,2.8l4.5,2.8l4.5,2.7l4.5,2.7l4.5,2.6l4.5,2.6l4.5,2.5l4.5,2.5l4.5,2.4l4.5,2.3l4.5,2.3l4.5,2.2l4.5,2.1
				l4.5,2l4.5,2l4.5,1.9l4.5,1.8l4.5,1.7l4.5,1.7l4.5,1.6l4.5,1.5l4.5,1.4l4.5,1.4l4.5,1.3l4.5,1.2l4.5,1.2l4.5,1.1l4.5,1l4.5,1
				l4.5,0.9l4.5,0.9l4.5,0.8l4.5,0.8l4.5,0.7l4.5,0.7l4.5,0.6l4.5,0.6l4.5,0.6l4.5,0.5l4.5,0.5l4.5,0.5l4.5,0.4l4.5,0.4l4.5,0.4
				l4.5,0.4l4.5,0.3l4.5,0.3l4.5,0.3l4.5,0.3l4.5,0.3l4.5,0.2l4.5,0.2l4.5,0.2l4.5,0.2l4.5,0.2l4.5,0.2l4.5,0.2l4.5,0.1l4.5,0.1
				l4.5,0.1l4.5,0.1l4.5,0.1l4.5,0.1l4.5,0.1l4.5,0.1l4.5,0.1l4.5,0.1l4.5,0.1l4.5,0.1l4.5,0.1l4.5,0.1l4.5,0.1l4.5,0.1l4.5,0l4.5,0
				l4.5,0l4.5,0l4.5,0l4.5,0l4.5,0l4.5,0l4.5,0l4.5,0l4.5,0l4.5,0l4.5,0l4.5,0l4.5,0l4.5,0l4.5,0l4.5,0l4.5,0l4.5,0l4.5,0l4.5,0
				l4.5,0l4.5,0l4.5,0l4.5,0l4.5,0l4.5,0l4.5,0l4.5,0l4.5,0l4.5,0l4.5,0l4.5,0l4.5,0l4.5,0l4.5,0l4.5,0l4.5,0l4.5,0l4.5,0l4.5,0
				l4.5,0l4.5,0l4.5,0l4.5,0l4.5,0l4.5,0l4.5,0l4.5,0"/>
			<text transform="matrix(1 0 0 1 5 297)" class="st10 st7 st11">g</text>
			<text transform="matrix(1 0 0 1 5 297)" class="st12 st7 st11">g</text>
			<text transform="matrix(1 0 0 1 5 297)" class="st10 st7 st11">g</text>
		</g>
	</g>
</g>
</svg>
