<?xml version="1.0" encoding="utf-8"?>
<!-- Generator: Adobe Illustrator 24.1.2, SVG Export Plug-In . SVG Version: 6.00 Build 0)  -->
<svg version="1.1" id="Layer_1" xmlns="http://www.w3.org/2000/svg" xmlns:xlink="http://www.w3.org/1999/xlink" x="0px" y="0px"
	 viewBox="0 0 1156 728" style="enable-background:new 0 0 1156 728;" xml:space="preserve">
<style type="text/css">
	.st0{clip-path:url(#SVGID_2_);}
	.st1{fill:none;}
	.st2{fill:none;stroke:#C0C0C0;stroke-linecap:round;stroke-linejoin:round;stroke-miterlimit:10;}
	.st3{fill:none;stroke:#FFFFFF;stroke-miterlimit:10;}
	.st4{fill:none;stroke:#000000;stroke-miterlimit:10;}
	.st5{fill-rule:evenodd;clip-rule:evenodd;fill:#7D7DFF;fill-opacity:9.803922e-02;}
	
		.st6{fill:none;stroke:#1565C0;stroke-width:2.5;stroke-linecap:round;stroke-linejoin:round;stroke-miterlimit:10;stroke-opacity:0.8;}
	.st7{fill:#1565C0;}
	.st8{font-family:'Helvetica';}
	.st9{font-size:16px;}
	.st10{fill:none;stroke:#FFFFFF;stroke-width:3;stroke-linejoin:bevel;stroke-miterlimit:10;}
	
		.st11{fill:none;stroke:#C0C0C0;stroke-width:2.5;stroke-linejoin:round;stroke-miterlimit:10;stroke-opacity:0.8;stroke-dasharray:10.5,8;}
	
		.st12{fill:none;stroke:#7D7DFF;stroke-width:2.5;stroke-linecap:round;stroke-linejoin:round;stroke-miterlimit:10;stroke-opacity:0.698;}
	
		.st13{fill:none;stroke:#FF00FF;stroke-width:2.5;stroke-linecap:round;stroke-linejoin:round;stroke-miterlimit:10;stroke-opacity:0.698;}
	
		.st14{fill:none;stroke:#D76F00;stroke-width:2.5;stroke-linecap:round;stroke-linejoin:round;stroke-miterlimit:10;stroke-opacity:0.698;}
	.st15{fill:none;stroke:#000000;stroke-linecap:round;stroke-linejoin:round;stroke-miterlimit:10;}
	.st16{font-size:14px;}
	.st17{fill:#FF00FF;}
	.st18{fill:#D76F00;}
	.st19{fill:#00CC00;}
	.st20{fill:#C0C0C0;}
</style>
<g>
	<defs>
		<rect id="SVGID_1_" width="1156" height="728"/>
	</defs>
	<use xlink:href="#SVGID_1_"  style="overflow:visible;"/>
	<clipPath id="SVGID_2_">
		<use xlink:href="#SVGID_1_"  style="overflow:visible;"/>
	</clipPath>
	<g transform="scale(1,1)" class="st0">
		<g>
			<rect class="st1" width="1156" height="728"/>
			<path class="st2" d="M34.5,0.5v728 M34.5,0.5v728 M91.5,0.5v728 M148.5,0.5v728 M204.5,0.5v728 M261.5,0.5v728 M374.5,0.5v728
				 M431.5,0.5v728 M487.5,0.5v728 M544.5,0.5v728 M601.5,0.5v728 M657.5,0.5v728 M714.5,0.5v728 M770.5,0.5v728 M827.5,0.5v728
				 M884.5,0.5v728 M940.5,0.5v728 M997.5,0.5v728 M1054.5,0.5v728 M1110.5,0.5v728 M0,0"/>
			<path class="st2" d="M0.5,20.5h1156 M0.5,20.5h1156 M0.5,77.5h1156 M0.5,134.5h1156 M0.5,190.5h1156 M0.5,247.5h1156 M0.5,304.5
				h1156 M0.5,360.5h1156 M0.5,417.5h1156 M0.5,473.5h1156 M0.5,530.5h1156 M0.5,587.5h1156 M0.5,700.5h1156 M0,0"/>
			<path class="st3" d="M317.5,2.5v726"/>
			<path class="st4" d="M317.5,1.5l-4,4"/>
			<path class="st4" d="M317.5,1.5l4,4"/>
			<path class="st3" d="M0.5,643.5h1154"/>
			<path class="st4" d="M1155.5,643.5l-4-4"/>
			<path class="st4" d="M1155.5,643.5l-4,4"/>
			<path class="st5" d="M342.9,129L530,583.3l127.7,22.7L963,623.9L342.9,129z"/>
			<path class="st6" d="M1156-10H337.6l0.2,7.4l0.3,9.1l0.3,8.8l0.3,8.6l0.3,8.3l0.3,8.1l0.3,7.9l0.3,7.7l0.3,7.5l0.3,7.3l0.3,7.1
				l0.3,7l0.3,6.8l0.3,6.6l0.3,6.5l0.3,6.3l0.3,6.2l0.3,6l0.3,5.9l0.3,5.8l0.3,5.6l0.3,5.5l0.3,5.4l0.3,5.3l0.3,5.2l0.3,5.1l0.6,9.8
				l0.6,9.4l0.6,9l0.6,8.7l0.6,8.4l0.6,8l0.6,7.7l0.6,7.5l0.6,7.2l0.6,7l0.6,6.7l0.6,6.5l0.6,6.3l0.6,6.1l0.6,5.9l0.6,5.7l0.6,5.5
				l0.6,5.4l0.6,5.2l1.1,9.9l1.1,9.4l1.1,8.9l1.1,8.4l1.1,7.9 M361.3,347.4l1.1,7.5l1.1,7.2l1.1,6.8l1.1,6.5l1.1,6.2l1.1,5.9
				l1.1,5.7l1.1,5.4l1.1,5.2l1.1,5l2.3,9.3l2.3,8.6l2.3,8l2.3,7.4l2.3,6.9l2.3,6.5l2.3,6l2.3,5.7l2.3,5.3l4.5,9.7l4.5,8.7l4.5,7.8
				l4.5,7l4.5,6.4l4.5,5.8l4.5,5.3l4.5,4.9l4.5,4.5 M433.5,532.8l4.5,4.2l4.5,3.9l4.5,3.6l4.5,3.4l4.5,3.1l4.5,2.9l4.5,2.8l4.5,2.6
				l4.5,2.4l4.5,2.3l4.5,2.2l4.5,2.1l4.5,2l4.5,1.9l4.5,1.8l4.5,1.7l4.5,1.6l4.5,1.5l4.5,1.5l4.5,1.4l4.5,1.3l4.5,1.3l4.5,1.2
				l4.5,1.2l4.5,1.1l4.5,1.1l4.5,1l4.5,1l4.5,1l4.5,0.9l4.5,0.9l4.5,0.9 M578,594.5l4.5,0.8l4.5,0.8l4.5,0.8l4.5,0.8l4.5,0.7
				l4.5,0.7l4.5,0.7l4.5,0.7l4.5,0.7l4.5,0.6l4.5,0.6l4.5,0.6l4.5,0.6l4.5,0.6l4.5,0.5l4.5,0.5l4.5,0.5l4.5,0.5l4.5,0.5l4.5,0.5
				l4.5,0.5l4.5,0.5l4.5,0.4l4.5,0.4l4.5,0.4l4.5,0.4l4.5,0.4l4.5,0.4l4.5,0.4l4.5,0.4l4.5,0.4l4.5,0.4l4.5,0.3l4.5,0.3l4.5,0.3
				l4.5,0.3l4.5,0.3l4.5,0.3l4.5,0.3l4.5,0.3l4.5,0.3l4.5,0.3l4.5,0.3l4.5,0.3l4.5,0.3l4.5,0.3l4.5,0.3l4.5,0.3l4.5,0.3l4.5,0.2
				l4.5,0.2l4.5,0.2l4.5,0.2l4.5,0.2l4.5,0.2l4.5,0.2l4.5,0.2l4.5,0.2l4.5,0.2l4.5,0.2l4.5,0.2l4.5,0.2l4.5,0.2l4.5,0.2l4.5,0.2
				l4.5,0.2l4.5,0.2l4.5,0.2l4.5,0.2l4.5,0.2l4.5,0.2l4.5,0.2l4.5,0.2l4.5,0.2l4.5,0.2l4.5,0.2l4.5,0.2l4.5,0.2l4.5,0.2l4.5,0.2
				l4.5,0.1l4.5,0.1l4.5,0.1l4.5,0.1l4.5,0.1l4.5,0.1l4.5,0.1l4.5,0.1l4.5,0.1l4.5,0.1l4.5,0.1l4.5,0.1l4.5,0.1l4.5,0.1l4.5,0.1
				l4.5,0.1l4.5,0.1l4.5,0.1l4.5,0.1l4.5,0.1l4.5,0.1l4.5,0.1l4.5,0.1l4.5,0.1l4.5,0.1l4.5,0.1l4.5,0.1l4.5,0.1l4.5,0.1l4.5,0.1
				l4.5,0.1l4.5,0.1l4.5,0.1l4.5,0.1l4.5,0.1l4.5,0.1l4.5,0.1l4.5,0.1l4.5,0.1l4.5,0.1l4.5,0.1l4.5,0.1l4.5,0.1l4.5,0.1l4.5,0.1
				l4.5,0.1l4.5,0.1l4.5,0.1"/>
			<text transform="matrix(1 0 0 1 348 16)" class="st7 st8 st9">Φ(x)</text>
			<text transform="matrix(1 0 0 1 348 16)" class="st10 st8 st9">Φ(x)</text>
			<text transform="matrix(1 0 0 1 348 16)" class="st7 st8 st9">Φ(x)</text>
			<path class="st11" d="M424.1,733V-5"/>
			<path class="st12" d="M342.9,129L530,583.3"/>
			<path class="st12" d="M530,583.3l127.7,22.7"/>
			<path class="st12" d="M657.7,606.1L963,623.9"/>
			<path class="st12" d="M963,623.9L342.9,129"/>
			<path class="st13" d="M318,246.9h106.1"/>
			<path class="st14" d="M424.1,522.9H318"/>
			<path class="st7" d="M347.9,129c0,2.8-2.2,5-5,5c-2.8,0-5-2.2-5-5c0-2.8,2.2-5,5-5C345.7,124,347.9,126.3,347.9,129z"/>
			<path class="st15" d="M347.9,129c0,2.8-2.2,5-5,5c-2.8,0-5-2.2-5-5c0-2.8,2.2-5,5-5C345.7,124,347.9,126.3,347.9,129z"/>
			<text transform="matrix(1 0 0 1 347 119)" class="st7 st8 st9">Q</text>
			<text transform="matrix(1 0 0 1 359 126)" class="st7 st8 st16">1</text>
			<text transform="matrix(1 0 0 1 367 119)" class="st7 st8 st9">=(a</text>
			<text transform="matrix(1 0 0 1 395 126)" class="st7 st8 st16">1</text>
			<text transform="matrix(1 0 0 1 403 119)" class="st7 st8 st9">, Φ(a</text>
			<text transform="matrix(1 0 0 1 439 126)" class="st7 st8 st16">1</text>
			<text transform="matrix(1 0 0 1 447 119)" class="st7 st8 st9">))</text>
			<path class="st7" d="M535,583.3c0,2.8-2.2,5-5,5s-5-2.2-5-5s2.2-5,5-5S535,580.6,535,583.3z"/>
			<path class="st15" d="M535,583.3c0,2.8-2.2,5-5,5s-5-2.2-5-5s2.2-5,5-5S535,580.6,535,583.3z"/>
			<text transform="matrix(1 0 0 1 538 568)" class="st7 st8 st9">Q</text>
			<text transform="matrix(1 0 0 1 538 568)" class="st10 st8 st9">Q</text>
			<text transform="matrix(1 0 0 1 538 568)" class="st7 st8 st9">Q</text>
			<text transform="matrix(1 0 0 1 550 575)" class="st7 st8 st16">2</text>
			<text transform="matrix(1 0 0 1 550 575)" class="st10 st8 st16">2</text>
			<text transform="matrix(1 0 0 1 550 575)" class="st7 st8 st16">2</text>
			<text transform="matrix(1 0 0 1 558 568)" class="st7 st8 st9">=(a</text>
			<text transform="matrix(1 0 0 1 558 568)" class="st10 st8 st9">=(a</text>
			<text transform="matrix(1 0 0 1 558 568)" class="st7 st8 st9">=(a</text>
			<text transform="matrix(1 0 0 1 586 575)" class="st7 st8 st16">2</text>
			<text transform="matrix(1 0 0 1 586 575)" class="st10 st8 st16">2</text>
			<text transform="matrix(1 0 0 1 586 575)" class="st7 st8 st16">2</text>
			<text transform="matrix(1 0 0 1 594 568)" class="st7 st8 st9">, Φ(a</text>
			<text transform="matrix(1 0 0 1 594 568)" class="st10 st8 st9">, Φ(a</text>
			<text transform="matrix(1 0 0 1 594 568)" class="st7 st8 st9">, Φ(a</text>
			<text transform="matrix(1 0 0 1 630 575)" class="st7 st8 st16">2</text>
			<text transform="matrix(1 0 0 1 630 575)" class="st10 st8 st16">2</text>
			<text transform="matrix(1 0 0 1 630 575)" class="st7 st8 st16">2</text>
			<text transform="matrix(1 0 0 1 638 568)" class="st7 st8 st9">))</text>
			<text transform="matrix(1 0 0 1 638 568)" class="st10 st8 st9">))</text>
			<text transform="matrix(1 0 0 1 638 568)" class="st7 st8 st9">))</text>
			<path class="st7" d="M662.7,606.1c0,2.8-2.2,5-5,5c-2.8,0-5-2.2-5-5s2.2-5,5-5C660.5,601.1,662.7,603.3,662.7,606.1z"/>
			<path class="st15" d="M662.7,606.1c0,2.8-2.2,5-5,5c-2.8,0-5-2.2-5-5s2.2-5,5-5C660.5,601.1,662.7,603.3,662.7,606.1z"/>
			<text transform="matrix(1 0 0 1 665 580)" class="st7 st8 st9">Q</text>
			<text transform="matrix(1 0 0 1 665 580)" class="st10 st8 st9">Q</text>
			<text transform="matrix(1 0 0 1 665 580)" class="st7 st8 st9">Q</text>
			<text transform="matrix(1 0 0 1 677 587)" class="st7 st8 st16">3</text>
			<text transform="matrix(1 0 0 1 677 587)" class="st10 st8 st16">3</text>
			<text transform="matrix(1 0 0 1 677 587)" class="st7 st8 st16">3</text>
			<text transform="matrix(1 0 0 1 685 580)" class="st7 st8 st9">= (a</text>
			<text transform="matrix(1 0 0 1 685 580)" class="st10 st8 st9">= (a</text>
			<text transform="matrix(1 0 0 1 685 580)" class="st7 st8 st9">= (a</text>
			<text transform="matrix(1 0 0 1 717 587)" class="st7 st8 st16">3</text>
			<text transform="matrix(1 0 0 1 717 587)" class="st10 st8 st16">3</text>
			<text transform="matrix(1 0 0 1 717 587)" class="st7 st8 st16">3</text>
			<text transform="matrix(1 0 0 1 725 580)" class="st7 st8 st9">, Φ(a</text>
			<text transform="matrix(1 0 0 1 725 580)" class="st10 st8 st9">, Φ(a</text>
			<text transform="matrix(1 0 0 1 725 580)" class="st7 st8 st9">, Φ(a</text>
			<text transform="matrix(1 0 0 1 761 587)" class="st7 st8 st16">3</text>
			<text transform="matrix(1 0 0 1 761 587)" class="st10 st8 st16">3</text>
			<text transform="matrix(1 0 0 1 761 587)" class="st7 st8 st16">3</text>
			<text transform="matrix(1 0 0 1 769 580)" class="st7 st8 st9">))</text>
			<text transform="matrix(1 0 0 1 769 580)" class="st10 st8 st9">))</text>
			<text transform="matrix(1 0 0 1 769 580)" class="st7 st8 st9">))</text>
			<path class="st7" d="M968,623.9c0,2.8-2.2,5-5,5s-5-2.2-5-5c0-2.8,2.2-5,5-5S968,621.2,968,623.9z"/>
			<path class="st15" d="M968,623.9c0,2.8-2.2,5-5,5s-5-2.2-5-5c0-2.8,2.2-5,5-5S968,621.2,968,623.9z"/>
			<text transform="matrix(1 0 0 1 961 592)" class="st7 st8 st9">Q</text>
			<text transform="matrix(1 0 0 1 961 592)" class="st10 st8 st9">Q</text>
			<text transform="matrix(1 0 0 1 961 592)" class="st7 st8 st9">Q</text>
			<text transform="matrix(1 0 0 1 973 599)" class="st7 st8 st16">4</text>
			<text transform="matrix(1 0 0 1 973 599)" class="st10 st8 st16">4</text>
			<text transform="matrix(1 0 0 1 973 599)" class="st7 st8 st16">4</text>
			<text transform="matrix(1 0 0 1 981 592)" class="st7 st8 st9">=(a</text>
			<text transform="matrix(1 0 0 1 981 592)" class="st10 st8 st9">=(a</text>
			<text transform="matrix(1 0 0 1 981 592)" class="st7 st8 st9">=(a</text>
			<text transform="matrix(1 0 0 1 1009 599)" class="st7 st8 st16">4</text>
			<text transform="matrix(1 0 0 1 1009 599)" class="st10 st8 st16">4</text>
			<text transform="matrix(1 0 0 1 1009 599)" class="st7 st8 st16">4</text>
			<text transform="matrix(1 0 0 1 1017 592)" class="st7 st8 st9">, Φ(a</text>
			<text transform="matrix(1 0 0 1 1017 592)" class="st10 st8 st9">, Φ(a</text>
			<text transform="matrix(1 0 0 1 1017 592)" class="st7 st8 st9">, Φ(a</text>
			<text transform="matrix(1 0 0 1 1053 599)" class="st7 st8 st16">4</text>
			<text transform="matrix(1 0 0 1 1053 599)" class="st10 st8 st16">4</text>
			<text transform="matrix(1 0 0 1 1053 599)" class="st7 st8 st16">4</text>
			<text transform="matrix(1 0 0 1 1061 592)" class="st7 st8 st9">))</text>
			<text transform="matrix(1 0 0 1 1061 592)" class="st10 st8 st9">))</text>
			<text transform="matrix(1 0 0 1 1061 592)" class="st7 st8 st9">))</text>
			<path class="st17" d="M429.1,246.9c0,2.8-2.2,5-5,5s-5-2.2-5-5c0-2.8,2.2-5,5-5S429.1,244.2,429.1,246.9z"/>
			<path class="st15" d="M429.1,246.9c0,2.8-2.2,5-5,5s-5-2.2-5-5c0-2.8,2.2-5,5-5S429.1,244.2,429.1,246.9z"/>
			<text transform="matrix(1 0 0 1 432.1457 237)" class="st17 st8 st9">∑pᵢQᵢ</text>
			<path class="st18" d="M429.1,643.8c0,2.8-2.2,5-5,5s-5-2.2-5-5c0-2.8,2.2-5,5-5S429.1,641,429.1,643.8z"/>
			<path class="st15" d="M429.1,643.8c0,2.8-2.2,5-5,5s-5-2.2-5-5c0-2.8,2.2-5,5-5S429.1,641,429.1,643.8z"/>
			<text transform="matrix(1 0 0 1 406 675)" class="st18 st8 st9">∑aᵢpᵢ</text>
			<text transform="matrix(1 0 0 1 406 675)" class="st10 st8 st9">∑aᵢpᵢ</text>
			<text transform="matrix(1 0 0 1 406 675)" class="st18 st8 st9">∑aᵢpᵢ</text>
			<path class="st19" d="M347.9,643.8c0,2.8-2.2,5-5,5c-2.8,0-5-2.2-5-5c0-2.8,2.2-5,5-5C345.7,638.8,347.9,641,347.9,643.8z"/>
			<path class="st15" d="M347.9,643.8c0,2.8-2.2,5-5,5c-2.8,0-5-2.2-5-5c0-2.8,2.2-5,5-5C345.7,638.8,347.9,641,347.9,643.8z"/>
			<text transform="matrix(1 0 0 1 347 634)" class="st19 st8 st9">a</text>
			<text transform="matrix(1 0 0 1 347 634)" class="st10 st8 st9">a</text>
			<text transform="matrix(1 0 0 1 347 634)" class="st19 st8 st9">a</text>
			<text transform="matrix(1 0 0 1 356 641)" class="st19 st8 st16">1</text>
			<text transform="matrix(1 0 0 1 356 641)" class="st10 st8 st16">1</text>
			<text transform="matrix(1 0 0 1 356 641)" class="st19 st8 st16">1</text>
			<path class="st19" d="M535,643.8c0,2.8-2.2,5-5,5s-5-2.2-5-5c0-2.8,2.2-5,5-5S535,641,535,643.8z"/>
			<path class="st15" d="M535,643.8c0,2.8-2.2,5-5,5s-5-2.2-5-5c0-2.8,2.2-5,5-5S535,641,535,643.8z"/>
			<text transform="matrix(1 0 0 1 534 634)" class="st19 st8 st9">a</text>
			<text transform="matrix(1 0 0 1 534 634)" class="st10 st8 st9">a</text>
			<text transform="matrix(1 0 0 1 534 634)" class="st19 st8 st9">a</text>
			<text transform="matrix(1 0 0 1 543 641)" class="st19 st8 st16">2</text>
			<text transform="matrix(1 0 0 1 543 641)" class="st10 st8 st16">2</text>
			<text transform="matrix(1 0 0 1 543 641)" class="st19 st8 st16">2</text>
			<path class="st19" d="M662.7,643.8c0,2.8-2.2,5-5,5c-2.8,0-5-2.2-5-5c0-2.8,2.2-5,5-5C660.5,638.8,662.7,641,662.7,643.8z"/>
			<path class="st15" d="M662.7,643.8c0,2.8-2.2,5-5,5c-2.8,0-5-2.2-5-5c0-2.8,2.2-5,5-5C660.5,638.8,662.7,641,662.7,643.8z"/>
			<text transform="matrix(1 0 0 1 662 634)" class="st19 st8 st9">a</text>
			<text transform="matrix(1 0 0 1 662 634)" class="st10 st8 st9">a</text>
			<text transform="matrix(1 0 0 1 662 634)" class="st19 st8 st9">a</text>
			<text transform="matrix(1 0 0 1 671 641)" class="st19 st8 st16">3</text>
			<text transform="matrix(1 0 0 1 671 641)" class="st10 st8 st16">3</text>
			<text transform="matrix(1 0 0 1 671 641)" class="st19 st8 st16">3</text>
			<path class="st19" d="M968,643.8c0,2.8-2.2,5-5,5s-5-2.2-5-5c0-2.8,2.2-5,5-5S968,641,968,643.8z"/>
			<path class="st15" d="M968,643.8c0,2.8-2.2,5-5,5s-5-2.2-5-5c0-2.8,2.2-5,5-5S968,641,968,643.8z"/>
			<text transform="matrix(1 0 0 1 977 638)" class="st19 st8 st9">a</text>
			<text transform="matrix(1 0 0 1 977 638)" class="st10 st8 st9">a</text>
			<text transform="matrix(1 0 0 1 977 638)" class="st19 st8 st9">a</text>
			<text transform="matrix(1 0 0 1 986 645)" class="st19 st8 st16">4</text>
			<text transform="matrix(1 0 0 1 986 645)" class="st10 st8 st16">4</text>
			<text transform="matrix(1 0 0 1 986 645)" class="st19 st8 st16">4</text>
			<path class="st20" d="M429.1,522.9c0,2.8-2.2,5-5,5s-5-2.2-5-5s2.2-5,5-5S429.1,520.2,429.1,522.9z"/>
			<path class="st15" d="M429.1,522.9c0,2.8-2.2,5-5,5s-5-2.2-5-5s2.2-5,5-5S429.1,520.2,429.1,522.9z"/>
			<path class="st17" d="M323,246.9c0,2.8-2.2,5-5,5c-2.8,0-5-2.2-5-5c0-2.8,2.2-5,5-5C320.7,241.9,323,244.2,323,246.9z"/>
			<path class="st15" d="M323,246.9c0,2.8-2.2,5-5,5c-2.8,0-5-2.2-5-5c0-2.8,2.2-5,5-5C320.7,241.9,323,244.2,323,246.9z"/>
			<text transform="matrix(1 0 0 1 242 229)" class="st17 st8 st9">∑ pᵢ Φ(aᵢ)</text>
			<path class="st18" d="M323,522.9c0,2.8-2.2,5-5,5c-2.8,0-5-2.2-5-5s2.2-5,5-5C320.7,517.9,323,520.2,323,522.9z"/>
			<path class="st15" d="M323,522.9c0,2.8-2.2,5-5,5c-2.8,0-5-2.2-5-5s2.2-5,5-5C320.7,517.9,323,520.2,323,522.9z"/>
			<text transform="matrix(1 0 0 1 242 512)" class="st18 st8 st9">Φ(∑ aᵢ pᵢ)</text>
			<text transform="matrix(1 0 0 1 242 512)" class="st10 st8 st9">Φ(∑ aᵢ pᵢ)</text>
			<text transform="matrix(1 0 0 1 242 512)" class="st18 st8 st9">Φ(∑ aᵢ pᵢ)</text>
		</g>
	</g>
</g>
</svg>
