<?xml version="1.0" encoding="utf-8"?>
<!-- Generator: Adobe Illustrator 24.1.2, SVG Export Plug-In . SVG Version: 6.00 Build 0)  -->
<svg version="1.1" id="Layer_1" xmlns="http://www.w3.org/2000/svg" xmlns:xlink="http://www.w3.org/1999/xlink" x="0px" y="0px"
	 viewBox="0 0 966.7 728" style="enable-background:new 0 0 966.7 728;" xml:space="preserve">
<style type="text/css">
	.st0{clip-path:url(#SVGID_2_);}
	.st1{fill:none;}
	.st2{fill:none;stroke:#C0C0C0;stroke-linecap:round;stroke-linejoin:round;stroke-miterlimit:10;}
	.st3{fill:none;stroke:#FFFFFF;stroke-width:3;stroke-miterlimit:10;}
	.st4{fill:none;stroke:#000000;stroke-miterlimit:10;}
	.st5{fill:none;stroke:#FFFFFF;stroke-width:4;stroke-miterlimit:10;}
	.st6{fill-rule:evenodd;clip-rule:evenodd;fill:#7D7DFF;fill-opacity:9.803922e-02;}
	
		.st7{fill:none;stroke:#4AE3FF;stroke-width:2.5;stroke-linecap:round;stroke-linejoin:round;stroke-miterlimit:10;stroke-opacity:0.8;}
	.st8{fill:#15EEFF;}
	.st9{font-family:'Helvetica';}
	.st10{font-size:16px;}
	
		.st11{fill:none;stroke:#C0C0C0;stroke-width:2.5;stroke-linejoin:round;stroke-miterlimit:10;stroke-opacity:0.8;stroke-dasharray:10.5,8;}
	
		.st12{fill:none;stroke:#7D7DFF;stroke-width:2.5;stroke-linecap:round;stroke-linejoin:round;stroke-miterlimit:10;stroke-opacity:0.698;}
	
		.st13{fill:none;stroke:#FF00FF;stroke-width:2.5;stroke-linecap:round;stroke-linejoin:round;stroke-miterlimit:10;stroke-opacity:0.698;}
	
		.st14{fill:none;stroke:#FFE13F;stroke-width:2.5;stroke-linecap:round;stroke-linejoin:round;stroke-miterlimit:10;stroke-opacity:0.698;}
	.st15{fill:none;stroke:#000000;stroke-linecap:round;stroke-linejoin:round;stroke-miterlimit:10;}
	.st16{font-size:14px;}
	.st17{fill:#1565C0;}
	.st18{fill:#FF00FF;}
	.st19{fill:#FFE13F;}
	.st20{fill:#00CC00;}
	.st21{fill:#FFDB55;}
</style>
<g>
	<g>
		<g>
			<defs>
				<rect id="SVGID_1_" x="-189.3" width="1156" height="728"/>
			</defs>
			<clipPath id="SVGID_2_">
				<use xlink:href="#SVGID_1_"  style="overflow:visible;"/>
			</clipPath>
			<g transform="scale(1,1)" class="st0">
				<g>
					<rect x="-189.3" class="st1" width="1156" height="728"/>
					<path class="st2" d="M-154.8,0.5v728 M-154.8,0.5v728 M-97.8,0.5v728 M-40.8,0.5v728 M15.2,0.5v728 M72.2,0.5v728 M185.2,0.5
						v728 M242.2,0.5v728 M298.2,0.5v728 M355.2,0.5v728 M412.2,0.5v728 M468.2,0.5v728 M525.2,0.5v728 M581.2,0.5v728 M638.2,0.5
						v728 M695.2,0.5v728 M751.2,0.5v728 M808.2,0.5v728 M865.2,0.5v728 M921.2,0.5v728"/>
					<path class="st2" d="M-188.8,20.5h1156 M-188.8,20.5h1156 M-188.8,77.5h1156 M-188.8,134.5h1156 M-188.8,190.5h1156
						 M-188.8,247.5h1156 M-188.8,304.5h1156 M-188.8,360.5h1156 M-188.8,417.5h1156 M-188.8,473.5h1156 M-188.8,530.5h1156
						 M-188.8,587.5h1156 M-188.8,700.5h1156"/>
					<path class="st3" d="M128.2,2.5v726"/>
					<path class="st4" d="M128.2,1.5l-4,4"/>
					<path class="st5" d="M128.2,1.5l4,4"/>
					<path class="st3" d="M-188.8,643.5h1154"/>
					<path class="st4" d="M966.2,643.5l-4-4"/>
					<path class="st5" d="M966.2,643.5l-4,4"/>
					<path class="st6" d="M153.6,129l187.1,454.3L468.4,606l305.3,17.9L153.6,129z"/>
					<path class="st7" d="M966.7-10H148.3l0.2,7.4l0.3,9.1l0.3,8.8l0.3,8.6l0.3,8.3l0.3,8.1l0.3,7.9l0.3,7.7l0.3,7.5l0.3,7.3
						l0.3,7.1l0.3,7l0.3,6.8l0.3,6.6l0.3,6.5l0.3,6.3l0.3,6.2l0.3,6l0.3,5.9l0.3,5.8l0.3,5.6l0.3,5.5l0.3,5.4l0.3,5.3l0.3,5.2
						l0.3,5.1l0.6,9.8l0.6,9.4l0.6,9l0.6,8.7l0.6,8.4l0.6,8l0.6,7.7l0.6,7.5l0.6,7.2l0.6,7l0.6,6.7l0.6,6.5l0.6,6.3l0.6,6.1l0.6,5.9
						l0.6,5.7l0.6,5.5l0.6,5.4l0.6,5.2l1.1,9.9l1.1,9.4l1.1,8.9l1.1,8.4l1.1,7.9 M172,347.4l1.1,7.5l1.1,7.2l1.1,6.8l1.1,6.5
						l1.1,6.2l1.1,5.9l1.1,5.7l1.1,5.4l1.1,5.2l1.1,5l2.3,9.3l2.3,8.6l2.3,8l2.3,7.4l2.3,6.9l2.3,6.5l2.3,6l2.3,5.7l2.3,5.3l4.5,9.7
						l4.5,8.7l4.5,7.8l4.5,7l4.5,6.4l4.5,5.8l4.5,5.3l4.5,4.9l4.5,4.5 M244.2,532.8l4.5,4.2l4.5,3.9l4.5,3.6l4.5,3.4l4.5,3.1
						l4.5,2.9l4.5,2.8l4.5,2.6l4.5,2.4l4.5,2.3l4.5,2.2l4.5,2.1l4.5,2l4.5,1.9l4.5,1.8l4.5,1.7l4.5,1.6l4.5,1.5l4.5,1.5l4.5,1.4
						l4.5,1.3l4.5,1.3l4.5,1.2l4.5,1.2l4.5,1.1l4.5,1.1l4.5,1l4.5,1l4.5,1l4.5,0.9l4.5,0.9l4.5,0.9 M388.7,594.5l4.5,0.8l4.5,0.8
						l4.5,0.8l4.5,0.8l4.5,0.7l4.5,0.7l4.5,0.7l4.5,0.7l4.5,0.7l4.5,0.6l4.5,0.6l4.5,0.6l4.5,0.6l4.5,0.6l4.5,0.5l4.5,0.5l4.5,0.5
						l4.5,0.5l4.5,0.5l4.5,0.5l4.5,0.5l4.5,0.5l4.5,0.4l4.5,0.4l4.5,0.4l4.5,0.4l4.5,0.4l4.5,0.4l4.5,0.4l4.5,0.4l4.5,0.4l4.5,0.4
						l4.5,0.3l4.5,0.3l4.5,0.3l4.5,0.3l4.5,0.3l4.5,0.3l4.5,0.3l4.5,0.3l4.5,0.3l4.5,0.3l4.5,0.3l4.5,0.3l4.5,0.3l4.5,0.3l4.5,0.3
						l4.5,0.3l4.5,0.3l4.5,0.2l4.5,0.2l4.5,0.2l4.5,0.2l4.5,0.2l4.5,0.2l4.5,0.2l4.5,0.2l4.5,0.2l4.5,0.2l4.5,0.2l4.5,0.2l4.5,0.2
						l4.5,0.2l4.5,0.2l4.5,0.2l4.5,0.2l4.5,0.2l4.5,0.2l4.5,0.2l4.5,0.2l4.5,0.2l4.5,0.2l4.5,0.2l4.5,0.2l4.5,0.2l4.5,0.2l4.5,0.2
						l4.5,0.2l4.5,0.2l4.5,0.2l4.5,0.1l4.5,0.1l4.5,0.1l4.5,0.1l4.5,0.1l4.5,0.1l4.5,0.1l4.5,0.1l4.5,0.1l4.5,0.1l4.5,0.1l4.5,0.1
						l4.5,0.1l4.5,0.1l4.5,0.1l4.5,0.1l4.5,0.1l4.5,0.1l4.5,0.1l4.5,0.1l4.5,0.1l4.5,0.1l4.5,0.1l4.5,0.1l4.5,0.1l4.5,0.1l4.5,0.1
						l4.5,0.1l4.5,0.1l4.5,0.1l4.5,0.1l4.5,0.1l4.5,0.1l4.5,0.1l4.5,0.1l4.5,0.1l4.5,0.1l4.5,0.1l4.5,0.1l4.5,0.1l4.5,0.1l4.5,0.1
						l4.5,0.1l4.5,0.1l4.5,0.1l4.5,0.1l4.5,0.1l4.5,0.1"/>
					<text transform="matrix(1 0 0 1 158.7286 16)" class="st8 st9 st10">Φ(x)</text>
					<path class="st11" d="M234.8,733V-5"/>
					<path class="st12" d="M153.6,129l187.1,454.3"/>
					<path class="st12" d="M340.7,583.3L468.4,606"/>
					<path class="st12" d="M468.4,606.1l305.3,17.8"/>
					<path class="st12" d="M773.7,623.9L153.6,129"/>
					<path class="st13" d="M128.7,246.9h106.1"/>
					<path class="st14" d="M234.8,522.9H128.7"/>
					<path class="st8" d="M158.6,129c0,2.8-2.2,5-5,5s-5-2.2-5-5s2.2-5,5-5C156.4,124,158.6,126.3,158.6,129z"/>
					<path class="st15" d="M158.6,129c0,2.8-2.2,5-5,5s-5-2.2-5-5s2.2-5,5-5C156.4,124,158.6,126.3,158.6,129z"/>
					<text transform="matrix(1 0 0 1 157.7286 119)" class="st8 st9 st10">Q</text>
					<text transform="matrix(1 0 0 1 169.7286 126)" class="st8 st9 st16">1</text>
					<text transform="matrix(1 0 0 1 177.7286 119)" class="st8 st9 st10">=(a</text>
					<text transform="matrix(1 0 0 1 205.7286 126)" class="st8 st9 st16">1</text>
					<text transform="matrix(1 0 0 1 213.7286 119)" class="st8 st9 st10">, Φ(a</text>
					<text transform="matrix(1 0 0 1 249.7286 126)" class="st8 st9 st16">1</text>
					<text transform="matrix(1 0 0 1 257.7286 119)" class="st8 st9 st10">))</text>
					<path class="st8" d="M345.7,583.3c0,2.8-2.2,5-5,5s-5-2.2-5-5s2.2-5,5-5S345.7,580.6,345.7,583.3z"/>
					<path class="st15" d="M345.7,583.3c0,2.8-2.2,5-5,5s-5-2.2-5-5s2.2-5,5-5S345.7,580.6,345.7,583.3z"/>
					<text transform="matrix(1 0 0 1 348.7286 568)" class="st8 st9 st10">Q</text>
					<text transform="matrix(1 0 0 1 360.7286 575)" class="st8 st9 st16">2</text>
					<text transform="matrix(1 0 0 1 368.7286 568)" class="st8 st9 st10">=(a</text>
					<text transform="matrix(1 0 0 1 396.7286 575)" class="st8 st9 st16">2</text>
					<text transform="matrix(1 0 0 1 404.7286 568)" class="st8 st9 st10">, Φ(a</text>
					<text transform="matrix(1 0 0 1 440.7286 575)" class="st8 st9 st16">2</text>
					<text transform="matrix(1 0 0 1 448.7286 568)" class="st8 st9 st10">))</text>
					<path class="st8" d="M473.4,606.1c0,2.8-2.2,5-5,5s-5-2.2-5-5s2.2-5,5-5S473.4,603.3,473.4,606.1z"/>
					<path class="st15" d="M473.4,606.1c0,2.8-2.2,5-5,5s-5-2.2-5-5s2.2-5,5-5S473.4,603.3,473.4,606.1z"/>
					<text transform="matrix(1 0 0 1 475.7286 580)" class="st8 st9 st10">Q</text>
					<text transform="matrix(1 0 0 1 487.7286 587)" class="st8 st9 st16">3</text>
					<text transform="matrix(1 0 0 1 495.7286 580)" class="st8 st9 st10">= (a</text>
					<text transform="matrix(1 0 0 1 527.7286 587)" class="st8 st9 st16">3</text>
					<text transform="matrix(1 0 0 1 535.7286 580)" class="st8 st9 st10">, Φ(a</text>
					<text transform="matrix(1 0 0 1 571.7286 587)" class="st8 st9 st16">3</text>
					<text transform="matrix(1 0 0 1 579.7286 580)" class="st8 st9 st10">))</text>
					<path class="st17" d="M778.7,623.9c0,2.8-2.2,5-5,5s-5-2.2-5-5s2.2-5,5-5S778.7,621.2,778.7,623.9z"/>
					<path class="st15" d="M778.7,623.9c0,2.8-2.2,5-5,5s-5-2.2-5-5s2.2-5,5-5S778.7,621.2,778.7,623.9z"/>
					<text transform="matrix(1 0 0 1 771.7286 592)" class="st8 st9 st10">Q</text>
					<text transform="matrix(1 0 0 1 783.7286 599)" class="st8 st9 st16">4</text>
					<text transform="matrix(1 0 0 1 791.7286 592)" class="st8 st9 st10">=(a</text>
					<text transform="matrix(1 0 0 1 819.7286 599)" class="st8 st9 st16">4</text>
					<text transform="matrix(1 0 0 1 827.7286 592)" class="st8 st9 st10">, Φ(a</text>
					<text transform="matrix(1 0 0 1 863.7286 599)" class="st8 st9 st16">4</text>
					<text transform="matrix(1 0 0 1 871.7286 592)" class="st8 st9 st10">))</text>
					<path class="st18" d="M239.8,246.9c0,2.8-2.2,5-5,5s-5-2.2-5-5s2.2-5,5-5S239.8,244.2,239.8,246.9z"/>
					<path class="st15" d="M239.8,246.9c0,2.8-2.2,5-5,5s-5-2.2-5-5s2.2-5,5-5S239.8,244.2,239.8,246.9z"/>
					<text transform="matrix(1 0 0 1 242.8743 237)" class="st18 st9 st10">∑pᵢQᵢ</text>
					<path class="st19" d="M239.8,643.8c0,2.8-2.2,5-5,5s-5-2.2-5-5s2.2-5,5-5S239.8,641,239.8,643.8z"/>
					<path class="st15" d="M239.8,643.8c0,2.8-2.2,5-5,5s-5-2.2-5-5s2.2-5,5-5S239.8,641,239.8,643.8z"/>
					<text transform="matrix(1 0 0 1 216.7286 675)" class="st19 st9 st10">∑aᵢpᵢ</text>
					<path class="st20" d="M158.6,643.8c0,2.8-2.2,5-5,5s-5-2.2-5-5s2.2-5,5-5C156.4,638.8,158.6,641,158.6,643.8z"/>
					<path class="st15" d="M158.6,643.8c0,2.8-2.2,5-5,5s-5-2.2-5-5s2.2-5,5-5C156.4,638.8,158.6,641,158.6,643.8z"/>
					<text transform="matrix(1 0 0 1 157.7286 634)" class="st20 st9 st10">a</text>
					<text transform="matrix(1 0 0 1 166.7286 641)" class="st20 st9 st16">1</text>
					<path class="st20" d="M345.7,643.8c0,2.8-2.2,5-5,5s-5-2.2-5-5s2.2-5,5-5S345.7,641,345.7,643.8z"/>
					<path class="st15" d="M345.7,643.8c0,2.8-2.2,5-5,5s-5-2.2-5-5s2.2-5,5-5S345.7,641,345.7,643.8z"/>
					<text transform="matrix(1 0 0 1 344.7286 634)" class="st20 st9 st10">a</text>
					<text transform="matrix(1 0 0 1 353.7286 641)" class="st20 st9 st16">2</text>
					<path class="st20" d="M473.4,643.8c0,2.8-2.2,5-5,5s-5-2.2-5-5s2.2-5,5-5S473.4,641,473.4,643.8z"/>
					<path class="st15" d="M473.4,643.8c0,2.8-2.2,5-5,5s-5-2.2-5-5s2.2-5,5-5S473.4,641,473.4,643.8z"/>
					<text transform="matrix(1 0 0 1 472.7286 634)" class="st20 st9 st10">a</text>
					<text transform="matrix(1 0 0 1 481.7286 641)" class="st20 st9 st16">3</text>
					<path class="st20" d="M778.7,643.8c0,2.8-2.2,5-5,5s-5-2.2-5-5s2.2-5,5-5S778.7,641,778.7,643.8z"/>
					<path class="st15" d="M778.7,643.8c0,2.8-2.2,5-5,5s-5-2.2-5-5s2.2-5,5-5S778.7,641,778.7,643.8z"/>
					<text transform="matrix(1 0 0 1 787.7286 638)" class="st20 st9 st10">a</text>
					<text transform="matrix(1 0 0 1 796.7286 645)" class="st20 st9 st16">4</text>
					<path class="st21" d="M239.8,522.9c0,2.8-2.2,5-5,5s-5-2.2-5-5s2.2-5,5-5S239.8,520.2,239.8,522.9z"/>
					<path class="st15" d="M239.8,522.9c0,2.8-2.2,5-5,5s-5-2.2-5-5s2.2-5,5-5S239.8,520.2,239.8,522.9z"/>
					<path class="st18" d="M133.7,246.9c0,2.8-2.2,5-5,5s-5-2.2-5-5s2.2-5,5-5C131.4,241.9,133.7,244.2,133.7,246.9z"/>
					<path class="st15" d="M133.7,246.9c0,2.8-2.2,5-5,5s-5-2.2-5-5s2.2-5,5-5C131.4,241.9,133.7,244.2,133.7,246.9z"/>
					<text transform="matrix(1 0 0 1 52.7286 229)" class="st18 st9 st10">∑ pᵢ Φ(aᵢ)</text>
					<path class="st19" d="M133.7,522.9c0,2.8-2.2,5-5,5s-5-2.2-5-5s2.2-5,5-5C131.4,517.9,133.7,520.2,133.7,522.9z"/>
					<path class="st15" d="M133.7,522.9c0,2.8-2.2,5-5,5s-5-2.2-5-5s2.2-5,5-5C131.4,517.9,133.7,520.2,133.7,522.9z"/>
					<text transform="matrix(1 0 0 1 52.7286 512)" class="st19 st9 st10">Φ(∑ aᵢ pᵢ)</text>
				</g>
			</g>
		</g>
	</g>
</g>
</svg>
