<?xml version="1.0" encoding="utf-8"?>
<!-- Generator: Adobe Illustrator 24.1.2, SVG Export Plug-In . SVG Version: 6.00 Build 0)  -->
<svg version="1.1" id="Layer_1" xmlns="http://www.w3.org/2000/svg" xmlns:xlink="http://www.w3.org/1999/xlink" x="0px" y="0px"
	 viewBox="0 0 1000 1000" style="enable-background:new 0 0 1000 1000;" xml:space="preserve">
<style type="text/css">
	.st0{fill:none;stroke:#FFFFFF;stroke-width:40;stroke-miterlimit:10;}
	circle,path {fill:#FFFFFF; stroke: #FFFFFF;}
</style>
<circle class="st0" cx="500" cy="500" r="403.2"/>
<g>
	<circle cx="97.4" cy="500.6" r="79.9"/>
	<path d="M97.4,423.2c42.7,0,77.4,34.7,77.4,77.4s-34.7,77.4-77.4,77.4S20,543.2,20,500.6S54.7,423.2,97.4,423.2 M97.4,418.2
		c-45.5,0-82.4,36.9-82.4,82.4s36.9,82.4,82.4,82.4s82.4-36.9,82.4-82.4S142.8,418.2,97.4,418.2L97.4,418.2z"/>
</g>
<g>
	<circle cx="499.4" cy="97.4" r="79.9"/>
	<path d="M499.4,20c42.7,0,77.4,34.7,77.4,77.4s-34.7,77.4-77.4,77.4s-77.4-34.7-77.4-77.4S456.8,20,499.4,20 M499.4,15
		c-45.5,0-82.4,36.9-82.4,82.4s36.9,82.4,82.4,82.4s82.4-36.9,82.4-82.4S544.9,15,499.4,15L499.4,15z"/>
</g>
<g>
	<circle cx="499.4" cy="902.6" r="79.9"/>
	<path d="M499.4,825.3c42.7,0,77.4,34.7,77.4,77.4S542.1,980,499.4,980s-77.4-34.7-77.4-77.4S456.8,825.3,499.4,825.3 M499.4,820.3
		c-45.5,0-82.4,36.9-82.4,82.4s36.9,82.4,82.4,82.4s82.4-36.9,82.4-82.4S544.9,820.3,499.4,820.3L499.4,820.3z"/>
</g>
<g>
	<circle cx="902.6" cy="500.6" r="79.9"/>
	<path d="M902.6,423.2c42.7,0,77.4,34.7,77.4,77.4s-34.7,77.4-77.4,77.4s-77.4-34.7-77.4-77.4S860,423.2,902.6,423.2 M902.6,418.2
		c-45.5,0-82.4,36.9-82.4,82.4s36.9,82.4,82.4,82.4s82.4-36.9,82.4-82.4S948.1,418.2,902.6,418.2L902.6,418.2z"/>
</g>
<path class="st0" d="M498.8,96.8C498.8,319.7,319,500,96.8,500"/>
<path class="st0" d="M500,903.2C500,680.3,319.7,500,96.8,500"/>
<line class="st0" x1="96.8" y1="500" x2="902.1" y2="500"/>
</svg>
