<?xml version="1.0" encoding="utf-8"?>
<!-- Generator: Adobe Illustrator 24.1.2, SVG Export Plug-In . SVG Version: 6.00 Build 0)  -->
<svg version="1.1" id="Layer_1" xmlns="http://www.w3.org/2000/svg" xmlns:xlink="http://www.w3.org/1999/xlink" x="0px" y="0px"
	 viewBox="0 0 100 100" style="enable-background:new 0 0 100 100;" xml:space="preserve">
<style type="text/css">
	.st0{fill:#FFFFFF;}
</style>
<path class="st0" d="M50,91.7c22.8,0,42-19.2,42-42s-19.2-42-42-42S8,26.9,8,49.7S27.2,91.7,50,91.7z M50,11.7c20.6,0,38,17.4,38,38
	s-17.4,38-38,38s-38-17.4-38-38S29.4,11.7,50,11.7z"/>
<g>
	<path class="st0" d="M48.5,41.3L45,44.6c-2.3-2.5-5-3.7-7.9-3.7c-2.5,0-4.6,0.8-6.2,2.5c-1.7,1.7-2.5,3.8-2.5,6.2
		c0,1.7,0.4,3.3,1.1,4.6s1.8,2.4,3.2,3.1c1.4,0.8,2.9,1.1,4.6,1.1c1.4,0,2.7-0.3,3.9-0.8s2.5-1.5,3.9-2.9l3.3,3.5
		c-1.9,1.9-3.7,3.2-5.4,3.9s-3.6,1.1-5.8,1.1c-4,0-7.3-1.3-9.9-3.8s-3.8-5.8-3.8-9.8c0-2.6,0.6-4.9,1.7-6.9s2.8-3.6,5-4.8
		s4.5-1.8,7-1.8c2.1,0,4.2,0.5,6.2,1.4C45.4,38.4,47.1,39.7,48.5,41.3z"/>
	<path class="st0" d="M76.6,41.3l-3.4,3.3c-2.3-2.5-5-3.7-7.9-3.7c-2.5,0-4.6,0.8-6.2,2.5c-1.7,1.7-2.5,3.8-2.5,6.2
		c0,1.7,0.4,3.3,1.1,4.6c0.7,1.3,1.8,2.4,3.2,3.1s2.9,1.1,4.6,1.1c1.4,0,2.7-0.3,3.9-0.8c1.2-0.5,2.5-1.5,3.9-2.9l3.3,3.5
		c-1.9,1.9-3.7,3.2-5.4,3.9c-1.7,0.7-3.6,1.1-5.8,1.1c-4,0-7.3-1.3-9.9-3.8s-3.8-5.8-3.8-9.8c0-2.6,0.6-4.9,1.7-6.9s2.8-3.6,5-4.8
		s4.5-1.8,7-1.8c2.1,0,4.2,0.5,6.2,1.4C73.4,38.4,75.1,39.7,76.6,41.3z"/>
</g>
</svg>
