<?xml version="1.0" encoding="utf-8"?>
<!-- Generator: Adobe Illustrator 24.1.2, SVG Export Plug-In . SVG Version: 6.00 Build 0)  -->
<svg version="1.1" id="Layer_1" xmlns="http://www.w3.org/2000/svg" xmlns:xlink="http://www.w3.org/1999/xlink" x="0px" y="0px"
	 viewBox="0 0 100 100" style="enable-background:new 0 0 100 100;" xml:space="preserve">
<style type="text/css">
	.st0{fill:#FFFFFF;}
</style>
<path class="st0" d="M50,93.4c-23.7,0-42.9-19.3-42.9-42.9S26.3,7.6,50,7.6s42.9,19.3,42.9,42.9S73.7,93.4,50,93.4z M50,11.1
	c-21.7,0-39.4,17.7-39.4,39.4S28.3,89.9,50,89.9s39.4-17.7,39.4-39.4S71.7,11.1,50,11.1z M56.8,84.9H43.2c-1,0-1.8-0.8-1.8-1.8V60.3
	h-3.8c0,0-2.8-0.2-2.8-2.1V38c0-4.8,2.9-5.8,5.3-5.8h7c-3.2-1.2-5.5-4.3-5.5-7.9c0-4.6,3.8-8.4,8.4-8.4s8.4,3.8,8.4,8.4
	c0,3.6-2.3,6.7-5.5,7.9h6.8c3.4,0,5.4,2.2,5.4,5.8v20.1c0,1.3-1.2,1.8-1.7,2c-0.2,0.1-0.4,0.1-0.7,0.1h-4.4l0.2,22.8
	c0,0.5-0.2,0.9-0.5,1.3C57.8,84.7,57.3,84.9,56.8,84.9z M44.9,81.4h10.1l-0.2-22.8c0-0.5,0.2-0.9,0.5-1.3c0.3-0.3,0.8-0.5,1.2-0.5
	h5.1V38c0-2.1-0.8-2.3-1.9-2.3H40.1c-1.2,0-1.8,0.1-1.8,2.3v18.8h4.9c1,0,1.8,0.8,1.8,1.8L44.9,81.4L44.9,81.4z M50,19.4
	c-2.7,0-4.9,2.2-4.9,4.9s2.2,4.9,4.9,4.9c2.7,0,4.9-2.2,4.9-4.9C54.9,21.6,52.7,19.4,50,19.4z"/>
</svg>
